SplineFontDB: 3.2
FontName: MFEKSans-Regular
FullName: MFEK Sans Regular
FamilyName: MFEK Sans
Weight: Regular
Copyright: 
Version: 0.1
ItalicAngle: -13
UnderlinePosition: -200
UnderlineWidth: 100
Ascent: 1600
Descent: 400
InvalidEm: 0
LayerCount: 2
Layer: 0 0 "Back" 1
Layer: 1 0 "Fore" 0
XUID: [1021 31 -699969567 16487490]
FSType: 0
OS2Version: 0
OS2_WeightWidthSlopeOnly: 0
OS2_UseTypoMetrics: 1
CreationTime: 1460762150
ModificationTime: 1696948095
PfmFamily: 33
TTFWeight: 400
TTFWidth: 1
LineGap: 0
VLineGap: 0
OS2TypoAscent: 2500
OS2TypoAOffset: 0
OS2TypoDescent: -850
OS2TypoDOffset: 0
OS2TypoLinegap: 0
OS2WinAscent: 2500
OS2WinAOffset: 0
OS2WinDescent: 850
OS2WinDOffset: 0
HheadAscent: 2500
HheadAOffset: 0
HheadDescent: -850
HheadDOffset: 0
OS2CapHeight: 1500
OS2XHeight: 1040
OS2FamilyClass: 2053
OS2Vendor: 'it* '
OS2UnicodeRanges: 00000001.00000000.00000000.00000000
Lookup: 258 0 0 "kerning yeah boi" { "say cheese" [300,0,4] } ['kern' ('DFLT' <'dflt' > 'grek' <'dflt' > 'latn' <'dflt' > ) ]
MarkAttachClasses: 1
DEI: 91125
KernClass2: 30 23 "say cheese"
 73 A Agrave Aacute Acircumflex Atilde Adieresis Aring Amacron Abreve Aogonek
 96 D O Ograve Oacute Ocircumflex Otilde Odieresis Oslash Dcaron Dcroat Omacron Obreve Ohungarumlaut
 81 E AE Egrave Eacute Ecircumflex Edieresis Emacron Ebreve Edotaccent Eogonek Ecaron
 1 F
 39 G Gcircumflex Gbreve Gdotaccent uni0122
 104 J U Ugrave Uacute Ucircumflex Udieresis IJ Jcircumflex Utilde Umacron Ubreve Uring Uhungarumlaut Uogonek
 11 K X uni0136
 23 L Lacute uni013B Lslash
 1 P
 1 Q
 23 R Racute uni0156 Rcaron
 36 S Sacute Scircumflex Scedilla Scaron
 21 T uni0162 Tcaron Tbar
 1 V
 53 W Wcircumflex Wgrave Wacute Wdieresis uni1E86 uni1E88
 30 Y Ycircumflex Ydieresis Ygrave
 26 Z Zacute Zdotaccent Zcaron
 73 a agrave aacute acircumflex atilde adieresis aring amacron abreve aogonek

StartChar: ampersand
Encoding: 38 38 0
Width: 555
VWidth: 1920
Flags: HMW
LayerCount: 2
Fore
SplineSet
354 5 m 2
 334 1036 l 2
 329 1125 326 1175 341 1241 c 0
 362 1331 418 1405 522 1405 c 4
 626 1405 654 1336 630 1231 c 0
 598 1094 506 1013 343 948 c 0
 202 892 144 826 116 704 c 0
 107 665 103 570 106 503 c 2
 115 236 l 2
 119 107 107 25 177 25 c 0
 293 25 448 360 521 644 c 0
 522 647 525 648 528 648 c 2
 538 648 l 2
 542 648 543 646 542 642 c 0
 464 347 314 -5 170 -5 c 0
 82 -5 88 75 83 249 c 2
 77 489 l 2
 75 578 73 646 86 704 c 0
 122 858 208 916 345 975 c 0
 497 1041 570 1099 599 1226 c 0
 622 1326 598 1375 515 1375 c 4
 437 1375 388 1316 371 1241 c 0
 357 1181 365 1087 365 1056 c 2
 384 5 l 2
 384 2 385 0 381 0 c 2
 361 0 l 2
 357 0 355 2 354 5 c 2
EndSplineSet
EndChar

StartChar: period
Encoding: 46 46 1
Width: 275
VWidth: 1920
Flags: HMW
LayerCount: 2
Fore
SplineSet
28 0 m 6
 8 0 l 6
 1 0 -2 3 0 10 c 6
 44 200 l 6
 46 207 49 210 56 210 c 6
 76 210 l 6
 83 210 86 207 84 200 c 6
 40 10 l 6
 38 3 35 0 28 0 c 6
EndSplineSet
EndChar

StartChar: zero
Encoding: 48 48 2
Width: 380
VWidth: 1920
Flags: HMW
LayerCount: 2
Fore
SplineSet
4 244 m 258
 215 1155 l 258
 253 1318 283 1405 394 1405 c 260
 505 1405 497 1318 459 1155 c 258
 248 244 l 258
 210 81 180 -5 69 -5 c 256
 -42 -5 -34 81 4 244 c 258
37 254 m 258
 8 130 -11 25 76 25 c 260
 163 25 192 130 221 254 c 258
 426 1145 l 258
 455 1269 474 1375 387 1375 c 260
 300 1375 271 1269 242 1145 c 258
 37 254 l 258
EndSplineSet
EndChar

StartChar: one
Encoding: 49 49 3
Width: 232
VWidth: 1920
Flags: HMW
LayerCount: 2
Fore
SplineSet
305 1376 m 4
 315 1384 317 1400 327 1440 c 4
 329 1447 330 1450 337 1450 c 6
 339 1450 l 6
 346 1450 345 1447 343 1440 c 6
 13 10 l 6
 11 3 8 0 1 0 c 6
 -9 0 l 6
 -16 0 -19 3 -17 10 c 6
 296 1364 l 6
 298 1371 301 1373 305 1376 c 4
EndSplineSet
EndChar

StartChar: two
Encoding: 50 50 4
Width: 357
VWidth: 1920
Flags: HMW
LayerCount: 2
Fore
SplineSet
-30 130 m 258
 51 482 292 668 361 967 c 258
 401 1138 l 258
 444 1323 444 1375 382 1375 c 256
 312 1375 275 1270 245 1140 c 258
 171 817 l 2
 170 813 169 812 165 812 c 2
 145 812 l 2
 141 812 140 813 141 817 c 2
 215 1140 l 258
 257 1321 305 1405 389 1405 c 256
 478 1405 477 1340 430 1135 c 258
 400 1005 l 258
 317 647 77 460 5 150 c 262
 -23 30 l 257
 187 30 l 2
 191 30 192 29 191 25 c 2
 186 5 l 2
 185 1 184 0 180 0 c 2
 -55 0 l 2
 -59 0 -60 1 -59 5 c 2
 -30 130 l 258
EndSplineSet
EndChar

StartChar: three
Encoding: 51 51 5
Width: 408
VWidth: 1920
Flags: HMW
LayerCount: 2
Fore
SplineSet
39 407 m 2
 59 407 l 2
 63 407 64 405 63 401 c 2
 8 164 l 2
 -13 74 11 25 91 25 c 0
 166 25 215 71 239 176 c 2
 328 564 l 2
 348 649 340 700 237 700 c 2
 197 700 l 2
 193 700 192 701 193 705 c 2
 197 725 l 2
 198 729 200 730 204 730 c 2
 234 730 l 2
 322 730 351 772 369 852 c 2
 459 1243 l 2
 479 1328 470 1375 397 1375 c 0
 327 1375 293 1321 271 1225 c 2
 209 957 l 2
 208 953 206 952 202 952 c 2
 182 952 l 2
 178 952 178 953 179 957 c 2
 241 1225 l 2
 268 1342 310 1405 404 1405 c 0
 498 1405 516 1356 489 1241 c 2
 403 869 l 2
 374 744 327 710 229 710 c 1
 242 723 l 5
 365 723 384 676 355 551 c 2
 268 174 l 2
 240 54 188 -5 84 -5 c 0
 -17 -5 -48 50 -22 164 c 2
 33 401 l 2
 34 405 35 407 39 407 c 2
EndSplineSet
EndChar

StartChar: four
Encoding: 52 52 6
Width: 425
VWidth: 1920
Flags: HMW
LayerCount: 2
Fore
SplineSet
363 430 m 2
 359 410 l 2
 358 406 357 405 353 405 c 2
 263 405 l 257
 170 5 l 2
 169 1 168 0 164 0 c 2
 144 0 l 2
 140 0 139 1 140 5 c 2
 233 405 l 257
 -2 405 l 2
 -6 405 -7 406 -6 410 c 2
 -4 420 l 2
 -3 424 0 431 2 435 c 2
 472 1395 l 2
 474 1398 475 1400 479 1400 c 2
 487 1400 l 2
 491 1400 492 1399 491 1395 c 2
 269 435 l 257
 359 435 l 2
 363 435 364 434 363 430 c 2
239 435 m 257
 430 1260 l 257
 26 435 l 257
 239 435 l 257
EndSplineSet
EndChar

StartChar: five
Encoding: 53 53 7
Width: 366
VWidth: 1920
Flags: HMW
LayerCount: 2
Fore
SplineSet
40 364 m 2
 60 364 l 2
 63 364 65 363 64 360 c 0
 2 91 12 25 64 25 c 0
 128 25 167 133 210 319 c 2
 277 612 l 2
 328 832 328 908 286 908 c 0
 241 908 200 827 152 659 c 0
 151 655 146 653 143 653 c 2
 117 653 l 2
 113 653 112 655 114 659 c 2
 318 1395 l 2
 320 1398 321 1400 325 1400 c 2
 535 1400 l 2
 539 1400 539 1399 538 1395 c 2
 537 1392 l 2
 533 1376 517 1370 432 1370 c 2
 341 1370 l 1
 152 690 l 1
 144 690 l 1
 177 802 223 938 293 938 c 0
 368 938 364 854 304 596 c 2
 234 294 l 2
 184 76 138 -5 57 -5 c 0
 -20 -5 -33 51 34 359 c 0
 35 363 36 364 40 364 c 2
EndSplineSet
EndChar

StartChar: six
Encoding: 54 54 8
Width: 421
VWidth: 1920
Flags: HMW
LayerCount: 2
Fore
SplineSet
280 764 m 260
 200 764 144 687 123 595 c 262
 115 560 l 261
 119 610 l 261
 145 722 199 794 287 794 c 260
 375 794 393 734 357 577 c 262
 271 204 l 262
 239 65 199 -5 93 -5 c 260
 -45 -5 -25 84 17 264 c 262
 215 1121 l 262
 261 1321 296 1405 404 1405 c 260
 512 1405 501 1322 471 1190 c 262
 416 955 l 6
 415 951 415 950 411 950 c 6
 391 950 l 6
 387 950 385 951 386 955 c 6
 441 1190 l 262
 469 1311 476 1375 397 1375 c 260
 320 1375 288 1308 244 1118 c 262
 35 211 l 262
 6 86 6 25 100 25 c 260
 180 25 214 88 242 208 c 262
 327 577 l 262
 360 719 342 764 280 764 c 260
EndSplineSet
EndChar

StartChar: seven
Encoding: 55 55 9
Width: 334
VWidth: 1920
Flags: HMW
LayerCount: 2
Fore
SplineSet
506 1395 m 2
 -1 5 l 2
 -4 1 -6 0 -10 0 c 2
 -28 0 l 2
 -32 0 -34 2 -31 5 c 2
 472 1370 l 257
 226 1370 l 2
 222 1370 222 1371 223 1375 c 2
 228 1395 l 2
 229 1399 229 1400 233 1400 c 2
 503 1400 l 2
 507 1400 509 1398 506 1395 c 2
EndSplineSet
EndChar

StartChar: eight
Encoding: 56 56 10
Width: 396
VWidth: 1920
Flags: HMW
LayerCount: 2
Fore
SplineSet
83 25 m 256
 158 25 186 68 210 171 c 258
 299 554 l 258
 318 638 322 692 237 692 c 256
 152 692 132 638 113 554 c 258
 24 171 l 258
 0 68 8 25 83 25 c 256
244 722 m 256
 299 722 337 764 357 852 c 258
 447 1243 l 258
 468 1336 448 1375 394 1375 c 256
 340 1375 302 1336 281 1243 c 258
 191 852 l 258
 171 764 189 722 244 722 c 256
257 712 m 257
 347 712 352 652 325 536 c 258
 241 174 l 258
 212 50 180 -5 76 -5 c 256
 -28 -5 -34 50 -5 174 c 258
 79 536 l 258
 106 652 136 712 226 712 c 257
 225 702 l 257
 163 705 137 749 165 869 c 258
 251 1241 l 258
 277 1352 317 1405 401 1405 c 256
 485 1405 503 1352 477 1241 c 258
 391 869 l 258
 363 749 318 705 254 702 c 257
 257 712 l 257
EndSplineSet
EndChar

StartChar: nine
Encoding: 57 57 11
Width: 406
VWidth: 1920
Flags: HMW
LayerCount: 2
Fore
SplineSet
217 636 m 256
 297 636 353 713 374 805 c 258
 382 840 l 257
 378 790 l 257
 352 678 298 606 210 606 c 256
 122 606 104 666 140 823 c 258
 226 1196 l 258
 258 1335 298 1405 404 1405 c 256
 542 1405 522 1316 480 1136 c 258
 282 279 l 258
 236 79 193 -5 85 -5 c 256
 -23 -5 -28 78 2 210 c 258
 57 445 l 2
 58 449 58 450 62 450 c 2
 82 450 l 2
 86 450 88 449 87 445 c 2
 32 210 l 258
 4 89 13 25 92 25 c 256
 169 25 209 92 253 282 c 258
 463 1189 l 258
 492 1314 491 1375 397 1375 c 256
 317 1375 283 1312 255 1192 c 258
 170 823 l 258
 137 681 155 636 217 636 c 256
EndSplineSet
EndChar

StartChar: A
Encoding: 65 65 12
Width: 347
VWidth: 960
Flags: HW
AnchorPoint: "ogonek" 209 0 basechar 0
AnchorPoint: "bottom" 69 0 basechar 0
AnchorPoint: "top" 389 1400 basechar 0
LayerCount: 2
Fore
SplineSet
87 475 m 261
 262 475 l 261
 255 445 l 261
 81 445 l 261
 87 475 l 261
372 1345 m 261
 -42 5 l 262
 -44 2 -46 0 -50 0 c 262
 -66 0 l 262
 -70 0 -70 2 -68 5 c 262
 363 1395 l 262
 365 1398 367 1400 371 1400 c 262
 398 1400 l 262
 402 1400 402 1398 402 1395 c 262
 218 5 l 262
 218 2 218 0 214 0 c 262
 188 0 l 262
 184 0 183 1 183 5 c 262
 372 1345 l 261
EndSplineSet
EndChar

StartChar: B
Encoding: 66 66 13
Width: 349
VWidth: 960
Flags: HW
AnchorPoint: "top" 391 1400 basechar 0
AnchorPoint: "bottom" 75 0 basechar 0
LayerCount: 2
Fore
SplineSet
158 725 m 261
 230 725 l 262
 291 725 339 802 370 942 c 262
 414 1134 l 262
 450 1294 446 1370 376 1370 c 262
 304 1370 l 261
 158 725 l 261
241 715 m 261
 320 715 355 655 314 481 c 262
 265 264 l 262
 220 64 163 0 80 0 c 262
 -30 0 l 262
 -34 0 -35 1 -34 5 c 262
 281 1395 l 262
 282 1399 283 1400 287 1400 c 262
 387 1400 l 262
 470 1400 485 1317 443 1132 c 262
 400 939 l 262
 368 794 311 710 232 710 c 261
 241 715 l 261
228 695 m 262
 152 695 l 261
 2 30 l 261
 78 30 l 262
 161 30 199 96 238 271 c 262
 282 468 l 262
 317 623 303 695 228 695 c 262
EndSplineSet
EndChar

StartChar: C
Encoding: 67 67 14
Width: 375
VWidth: 960
Flags: HW
AnchorPoint: "top" 405 1400 basechar 0
AnchorPoint: "bottom" 108 0 basechar 0
LayerCount: 2
Fore
SplineSet
361 603 m 256
 352 563 343 525 335 490 c 0
 244 95 204 -5 76 -5 c 256
 -49 -5 -24 129 28 359 c 258
 183 1042 l 258
 240 1292 307 1405 399 1405 c 256
 489 1405 487 1257 448 1103 c 4
 426 1018 394 931 360 866 c 256
 358 862 359 862 355 862 c 258
 347 862 l 258
 343 862 341 862 343 866 c 256
 468 1129 488 1375 392 1375 c 256
 322 1375 257 1241 213 1046 c 258
 57 354 l 258
 15 169 -16 25 83 25 c 256
 195 25 228 137 331 603 c 256
 332 607 333 608 337 608 c 258
 357 608 l 258
 361 608 362 607 361 603 c 256
EndSplineSet
EndChar

StartChar: D
Encoding: 68 68 15
Width: 364
VWidth: 960
Flags: HW
AnchorPoint: "top" 377 1400 basechar 0
AnchorPoint: "bottom" 46 0 basechar 0
LayerCount: 2
Fore
SplineSet
54 0 m 262
 -30 0 l 262
 -34 0 -34 1 -33 5 c 262
 281 1395 l 262
 282 1399 283 1400 287 1400 c 262
 371 1400 l 262
 480 1400 505 1275 448 1022 c 262
 300 369 l 262
 243 116 180 0 54 0 c 262
61 30 m 262
 171 30 222 155 269 364 c 262
 419 1026 l 262
 466 1235 455 1370 364 1370 c 262
 305 1370 l 261
 2 30 l 261
 61 30 l 262
EndSplineSet
EndChar

StartChar: E
Encoding: 69 69 16
Width: 352
VWidth: 960
Flags: HW
AnchorPoint: "ogonek" 181 0 basechar 0
AnchorPoint: "top" 392 1400 basechar 0
AnchorPoint: "bottom" 76 0 basechar 0
LayerCount: 2
Fore
SplineSet
158 720 m 261
 300 720 l 262
 304 720 305 719 304 715 c 262
 301 700 l 262
 300 696 298 695 294 695 c 262
 152 695 l 261
 2 30 l 261
 228 30 l 262
 232 30 233 29 232 25 c 262
 227 5 l 262
 226 1 225 0 221 0 c 262
 -29 0 l 262
 -33 0 -34 1 -33 5 c 262
 282 1395 l 262
 283 1399 284 1400 288 1400 c 262
 528 1400 l 262
 532 1400 533 1399 532 1395 c 262
 527 1375 l 262
 526 1371 525 1370 521 1370 c 262
 305 1370 l 261
 158 720 l 261
EndSplineSet
EndChar

StartChar: F
Encoding: 70 70 17
Width: 309
VWidth: 960
Flags: HW
AnchorPoint: "top" 372 1400 basechar 0
AnchorPoint: "bottom" 56 0 basechar 0
LayerCount: 2
Fore
SplineSet
158 720 m 257
 305 720 l 258
 309 720 310 719 309 715 c 258
 306 700 l 258
 305 696 303 695 299 695 c 258
 152 695 l 257
 -4 5 l 258
 -5 1 -6 0 -10 0 c 258
 -29 0 l 258
 -33 0 -34 1 -33 5 c 258
 281 1395 l 258
 282 1399 283 1400 287 1400 c 258
 503 1400 l 258
 507 1400 508 1399 507 1395 c 258
 502 1375 l 258
 501 1371 500 1370 496 1370 c 258
 305 1370 l 257
 158 720 l 257
EndSplineSet
EndChar

StartChar: G
Encoding: 71 71 18
Width: 376
VWidth: 960
Flags: HW
AnchorPoint: "top" 410 1400 basechar 0
AnchorPoint: "bottom" 95 0 basechar 0
LayerCount: 2
Fore
SplineSet
259 636 m 2
 263 655 l 2
 264 659 264 660 268 660 c 2
 370 660 l 2
 374 660 375 659 374 655 c 2
 226 5 l 2
 225 1 224 0 220 0 c 2
 215 0 l 2
 211 0 210 1 210 5 c 2
 313 520 l 1
 360 640 l 1
 242 165 177 -5 63 -5 c 0
 -30 -5 -33 89 33 379 c 2
 179 1022 l 2
 236 1272 288 1405 399 1405 c 0
 505 1405 504 1310 463 1124 c 0
 444 1040 424 951 407 867 c 0
 406 863 405 863 401 863 c 2
 382 863 l 2
 378 863 377 863 378 867 c 0
 459 1241 499 1375 393 1375 c 0
 299 1375 253 1221 209 1026 c 2
 61 374 l 2
 8 139 -5 25 70 25 c 4
 162 25 224 176 339 638 c 1
 343 630 l 1
 261 630 l 2
 257 630 258 632 259 636 c 2
EndSplineSet
EndChar

StartChar: H
Encoding: 72 72 19
Width: 358
VWidth: 960
Flags: HW
AnchorPoint: "top" 381 1400 basechar 0
AnchorPoint: "bottom" 66 0 basechar 0
LayerCount: 2
Fore
SplineSet
490 1400 m 2
 510 1400 l 2
 514 1400 515 1399 514 1395 c 2
 199 5 l 2
 198 1 197 0 193 0 c 2
 174 0 l 2
 170 0 169 1 170 5 c 2
 325 695 l 261
 147 695 l 261
 -9 5 l 2
 -10 1 -11 0 -15 0 c 2
 -35 0 l 2
 -39 0 -39 1 -38 5 c 2
 276 1395 l 18
 277 1399 278 1400 282 1400 c 10
 302 1400 l 18
 306 1400 306 1399 305 1395 c 10
 153 720 l 257
 331 720 l 257
 484 1395 l 2
 485 1399 486 1400 490 1400 c 2
EndSplineSet
EndChar

StartChar: I
Encoding: 73 73 20
Width: 155
VWidth: 960
Flags: HW
AnchorPoint: "ogonek" -48 0 basechar 0
AnchorPoint: "top" 270 1400 basechar 0
AnchorPoint: "bottom" -48 0 basechar 0
LayerCount: 2
Fore
SplineSet
266 1400 m 10
 286 1400 l 18
 290 1400 291 1399 290 1395 c 10
 -25 5 l 18
 -26 1 -27 0 -31 0 c 10
 -50 0 l 18
 -54 0 -55 1 -54 5 c 10
 260 1395 l 18
 261 1399 262 1400 266 1400 c 10
EndSplineSet
EndChar

StartChar: J
Encoding: 74 74 21
Width: 312
VWidth: 960
Flags: HW
AnchorPoint: "top" 426 1400 basechar 0
AnchorPoint: "bottom" 13 0 basechar 0
LayerCount: 2
Fore
SplineSet
410 1400 m 2
 429 1400 l 2
 433 1400 435 1399 434 1395 c 2
 179 269 l 258
 131 56 107 -5 20 -5 c 256
 -62 -5 -68 78 -1 239 c 258
 172 657 l 2
 173 661 175 663 179 663 c 2
 183 663 l 2
 187 663 189 661 188 657 c 2
 19 244 l 258
 -37 107 -34 25 26 25 c 256
 90 25 109 84 147 254 c 258
 405 1395 l 2
 406 1399 406 1400 410 1400 c 2
EndSplineSet
EndChar

StartChar: K
Encoding: 75 75 22
Width: 345
VWidth: 960
Flags: HW
AnchorPoint: "top" 367 1400 basechar 0
AnchorPoint: "bottom" 50 0 basechar 0
LayerCount: 2
Fore
SplineSet
282 1400 m 10
 302 1400 l 18
 306 1400 307 1399 306 1395 c 10
 -9 5 l 18
 -10 1 -11 0 -15 0 c 10
 -34 0 l 18
 -38 0 -39 1 -38 5 c 10
 276 1395 l 18
 277 1399 278 1400 282 1400 c 10
207 757 m 257
 237 815 l 257
 209 5 l 258
 211 1 211 0 207 0 c 2
 182 0 l 2
 178 0 175 1 175 5 c 258
 207 757 l 257
502 1395 m 258
 505 1397 508 1400 513 1400 c 2
 530 1400 l 2
 536 1400 537 1399 532 1395 c 258
 210 715 l 1
 210 723 l 1
 56 385 l 261
 70 460 l 257
 502 1395 l 258
EndSplineSet
EndChar

StartChar: L
Encoding: 76 76 23
Width: 256
VWidth: 960
Flags: HW
AnchorPoint: "top" 286 1400 basechar 0
AnchorPoint: "bottom" 48 0 basechar 0
LayerCount: 2
Fore
SplineSet
280 1400 m 2
 299 1400 l 6
 303 1400 304 1399 303 1395 c 2
 -5 30 l 281
 142 30 l 2
 146 30 147 29 146 25 c 2
 141 5 l 2
 140 1 139 0 135 0 c 2
 -37 0 l 2
 -41 0 -42 1 -41 5 c 2
 274 1395 l 2
 275 1399 276 1400 280 1400 c 2
EndSplineSet
EndChar

StartChar: M
Encoding: 77 77 24
Width: 457
VWidth: 960
Flags: HW
AnchorPoint: "top" 456 1400 basechar 0
AnchorPoint: "bottom" 137 0 basechar 0
LayerCount: 2
Fore
SplineSet
271 1260 m 257
 -13 5 l 2
 -14 1 -15 0 -19 0 c 2
 -34 0 l 2
 -38 0 -38 1 -37 5 c 2
 277 1395 l 2
 278 1399 279 1400 283 1400 c 2
 306 1400 l 2
 310 1400 311 1399 311 1395 c 2
 162 134 l 257
 577 1395 l 6
 579 1399 580 1400 584 1400 c 6
 608 1400 l 2
 612 1400 613 1399 612 1395 c 2
 298 5 l 2
 297 1 296 0 292 0 c 2
 272 0 l 2
 268 0 267 1 268 5 c 2
 551 1254 l 257
 136 5 l 2
 134 1 133 0 129 0 c 2
 128 0 l 2
 124 0 123 1 123 5 c 2
 271 1260 l 257
EndSplineSet
EndChar

StartChar: N
Encoding: 78 78 25
Width: 358
VWidth: 960
Flags: HW
AnchorPoint: "top" 401 1400 basechar 0
AnchorPoint: "bottom" 79 0 basechar 0
LayerCount: 2
Fore
SplineSet
490 1400 m 6
 510 1400 l 6
 514 1400 515 1399 514 1395 c 6
 199 5 l 6
 198 1 197 0 193 0 c 6
 188 0 l 6
 184 0 180 1 180 5 c 6
 280 1388 l 5
 291 1328 l 261
 -9 5 l 6
 -10 1 -11 0 -15 0 c 6
 -35 0 l 6
 -39 0 -39 1 -38 5 c 6
 276 1395 l 6
 277 1399 278 1400 282 1400 c 6
 297 1400 l 6
 301 1400 305 1399 305 1395 c 6
 210 76 l 5
 199 136 l 261
 484 1395 l 6
 485 1399 486 1400 490 1400 c 6
EndSplineSet
EndChar

StartChar: O
Encoding: 79 79 26
Width: 370
VWidth: 960
Flags: HW
AnchorPoint: "top" 406 1400 basechar 0
AnchorPoint: "bottom" 89 0 basechar 0
LayerCount: 2
Fore
SplineSet
17 309 m 262
 194 1092 l 262
 248 1329 296 1405 403 1405 c 260
 510 1405 525 1328 472 1092 c 262
 294 309 l 262
 240 72 192 -5 85 -5 c 260
 -22 -5 -37 72 17 309 c 262
45 304 m 262
 0 106 6 25 91 25 c 260
 176 25 220 107 264 304 c 262
 443 1096 l 262
 487 1293 481 1375 396 1375 c 260
 311 1375 270 1294 225 1096 c 262
 45 304 l 262
EndSplineSet
EndChar

StartChar: P
Encoding: 80 80 27
Width: 319
VWidth: 960
Flags: HW
AnchorPoint: "top" 362 1400 basechar 0
AnchorPoint: "bottom" -27 0 basechar 0
LayerCount: 2
Fore
SplineSet
304 1370 m 257
 146 665 l 257
 190 665 l 258
 244 665 293 679 334 859 c 262
 402 1161 l 258
 438 1321 412 1370 340 1370 c 258
 304 1370 l 257
324 1400 m 258
 443 1400 475 1351 429 1146 c 258
 367 874 l 258
 321 669 264 635 170 635 c 262
 139 635 l 257
 -4 5 l 2
 -5 1 -6 0 -10 0 c 2
 -30 0 l 2
 -34 0 -35 1 -34 5 c 2
 281 1395 l 2
 282 1399 283 1400 287 1400 c 2
 324 1400 l 258
EndSplineSet
EndChar

StartChar: Q
Encoding: 81 81 28
Width: 466
VWidth: 960
Flags: HW
AnchorPoint: "top" 406 1400 basechar 0
AnchorPoint: "bottom" 99 0 basechar 0
LayerCount: 2
Fore
SplineSet
354 23 m 2
 350 5 l 2
 349 1 350 0 344 -2 c 0
 243 -38 203 36 245 179 c 257
 280 294 l 257
 241 119 190 -5 85 -5 c 256
 -39 -5 -25 119 14 294 c 258
 197 1106 l 258
 241 1301 292 1405 403 1405 c 256
 514 1405 519 1301 475 1106 c 258
 264 174 l 258
 240 72 256 -10 349 28 c 0
 354 30 355 26 354 23 c 2
258 279 m 258
 449 1122 l 258
 487 1293 479 1375 396 1375 c 256
 313 1375 269 1293 231 1122 c 258
 40 279 l 258
 10 144 -5 25 91 25 c 256
 187 25 228 144 258 279 c 258
EndSplineSet
EndChar

StartChar: R
Encoding: 82 82 29
Width: 367
VWidth: 960
Flags: HW
AnchorPoint: "top" 387 1400 basechar 0
AnchorPoint: "bottom" 71 0 basechar 0
LayerCount: 2
Fore
SplineSet
305 1370 m 261
 158 720 l 261
 215 720 l 262
 272 720 336 779 365 909 c 262
 422 1161 l 262
 449 1281 455 1370 362 1370 c 262
 305 1370 l 261
369 1400 m 262
 480 1400 487 1321 449 1151 c 262
 398 929 l 262
 357 749 273 705 212 705 c 261
 213 710 l 261
 274 710 337 681 310 561 c 262
 235 234 l 262
 209 116 211 64 225 30 c 4
 228 24 228 23 227 20 c 6
 223 5 l 6
 222 1 221 0 217 0 c 6
 205 0 l 6
 201 0 201 0 199 4 c 4
 182 44 174 90 206 234 c 262
 283 576 l 262
 299 646 275 695 209 695 c 262
 152 695 l 261
 -4 5 l 6
 -5 1 -6 0 -10 0 c 6
 -30 0 l 6
 -34 0 -35 1 -34 5 c 6
 281 1395 l 6
 282 1399 283 1400 287 1400 c 6
 369 1400 l 262
EndSplineSet
EndChar

StartChar: S
Encoding: 83 83 30
Width: 336
VWidth: 960
Flags: HW
AnchorPoint: "top" 366 1400 basechar 0
AnchorPoint: "bottom" 59 0 basechar 0
LayerCount: 2
Fore
SplineSet
108 524 m 2
 115 524 l 2
 116 524 120 524 119 520 c 0
 99 434 72 338 50 258 c 4
 3 87 18 25 68 25 c 256
 115 25 185 88 232 294 c 256
 264 439 235 595 215 712 c 0
 189 855 185 971 229 1166 c 256
 267 1336 310 1405 390 1405 c 256
 463 1405 480 1324 411 1150 c 2
 316 906 l 2
 315 902 314 902 311 902 c 2
 297 902 l 2
 294 902 293 903 294 906 c 0
 329 988 355 1066 384 1146 c 0
 449 1324 435 1375 383 1375 c 256
 320 1375 290 1311 258 1166 c 256
 215 976 217 869 243 732 c 0
 266 611 301 472 261 294 c 256
 211 71 127 -5 61 -5 c 256
 -2 -5 -41 62 13 234 c 6
 103 520 l 2
 104 524 107 524 108 524 c 2
EndSplineSet
EndChar

StartChar: T
Encoding: 84 84 31
Width: 355
VWidth: 960
Flags: HW
AnchorPoint: "top" 386 1400 basechar 0
AnchorPoint: "bottom" 69 0 basechar 0
LayerCount: 2
Fore
SplineSet
232 1400 m 2
 561 1400 l 6
 565 1400 565 1399 564 1395 c 6
 560 1375 l 6
 559 1371 558 1370 554 1370 c 6
 407 1370 l 257
 98 5 l 2
 97 1 96 0 92 0 c 2
 68 0 l 2
 64 0 63 1 64 5 c 2
 372 1370 l 257
 225 1370 l 2
 221 1370 220 1371 221 1375 c 2
 226 1395 l 2
 227 1399 228 1400 232 1400 c 2
EndSplineSet
EndChar

StartChar: U
Encoding: 85 85 32
Width: 358
VWidth: 960
Flags: HW
AnchorPoint: "ogonek" 138 20 basechar 0
AnchorPoint: "top" 403 1400 basechar 0
AnchorPoint: "bottom" 86 0 basechar 0
LayerCount: 2
Fore
SplineSet
203 174 m 258
 480 1395 l 2
 481 1399 481 1400 485 1400 c 2
 505 1400 l 2
 509 1400 510 1399 509 1395 c 2
 239 199 l 258
 208 59 153 -5 78 -5 c 256
 12 -5 -30 28 10 204 c 258
 280 1395 l 2
 281 1399 282 1400 286 1400 c 2
 310 1400 l 2
 314 1400 315 1399 314 1395 c 2
 40 184 l 258
 13 64 36 25 85 25 c 256
 138 25 182 84 203 174 c 258
EndSplineSet
EndChar

StartChar: V
Encoding: 86 86 33
Width: 372
VWidth: 960
Flags: HW
AnchorPoint: "top" 403 1400 basechar 0
AnchorPoint: "bottom" 88 0 basechar 0
LayerCount: 2
Fore
SplineSet
108 55 m 261
 533 1395 l 262
 535 1398 536 1400 540 1400 c 262
 557 1400 l 262
 561 1400 561 1398 559 1395 c 262
 118 5 l 262
 116 2 114 0 110 0 c 262
 80 0 l 262
 76 0 75 2 75 5 c 262
 249 1395 l 262
 249 1398 249 1400 253 1400 c 262
 279 1400 l 262
 283 1400 285 1399 285 1395 c 262
 108 55 l 261
EndSplineSet
EndChar

StartChar: W
Encoding: 87 87 34
Width: 611
VWidth: 960
Flags: HW
AnchorPoint: "top" 538 1400 basechar 0
AnchorPoint: "bottom" 221 0 basechar 0
LayerCount: 2
Fore
SplineSet
95 55 m 257
 507 1395 l 2
 509 1398 509 1400 513 1400 c 2
 550 1400 l 2
 554 1400 555 1398 555 1395 c 2
 356 47 l 257
 775 1395 l 6
 777 1398 779 1400 783 1400 c 6
 801 1400 l 2
 805 1400 805 1398 803 1395 c 2
 366 5 l 2
 364 1 364 0 360 0 c 2
 322 0 l 2
 319 0 317 1 317 5 c 2
 517 1345 l 257
 104 5 l 2
 102 1 102 0 98 0 c 2
 60 0 l 2
 56 0 56 1 56 5 c 2
 253 1395 l 2
 253 1398 253 1400 257 1400 c 2
 280 1400 l 2
 284 1400 286 1398 286 1395 c 2
 95 55 l 257
EndSplineSet
EndChar

StartChar: X
Encoding: 88 88 35
Width: 344
VWidth: 960
Flags: HW
AnchorPoint: "top" 390 1400 basechar 0
AnchorPoint: "bottom" 74 0 basechar 0
LayerCount: 2
Fore
SplineSet
486 1400 m 2
 499 1400 l 2
 503 1400 514 1399 512 1395 c 2
 251 703 l 257
 213 5 l 2
 213 1 212 0 208 0 c 2
 183 0 l 2
 179 0 178 1 177 5 c 2
 224 666 l 257
 -26 5 l 6
 -30 1 -30 0 -34 0 c 6
 -60 0 l 2
 -64 0 -66 1 -64 5 c 2
 219 705 l 257
 266 1395 l 2
 266 1399 267 1400 271 1400 c 2
 294 1400 l 2
 298 1400 300 1399 301 1395 c 2
 246 741 l 257
 479 1395 l 2
 483 1399 482 1400 486 1400 c 2
EndSplineSet
EndChar

StartChar: Y
Encoding: 89 89 36
Width: 372
VWidth: 960
Flags: HW
AnchorPoint: "top" 398 1400 basechar 0
AnchorPoint: "bottom" 82 0 basechar 0
LayerCount: 2
Fore
SplineSet
540 1400 m 2
 557 1400 l 2
 561 1400 561 1399 558 1395 c 2
 247 625 l 257
 107 5 l 2
 106 1 104 0 100 0 c 2
 77 0 l 2
 73 0 71 1 72 5 c 2
 212 625 l 257
 250 1395 l 2
 249 1399 249 1400 253 1400 c 2
 276 1400 l 2
 280 1400 282 1399 283 1395 c 2
 244 675 l 261
 532 1395 l 2
 535 1399 536 1400 540 1400 c 2
EndSplineSet
EndChar

StartChar: Z
Encoding: 90 90 37
Width: 348
VWidth: 960
Flags: HW
AnchorPoint: "top" 403 1400 basechar 0
AnchorPoint: "bottom" 88 0 basechar 0
LayerCount: 2
Fore
SplineSet
-96 5 m 6
 507 1370 l 261
 273 1370 l 6
 269 1370 268 1371 269 1375 c 6
 274 1395 l 6
 275 1399 276 1400 280 1400 c 6
 547 1400 l 6
 551 1400 552 1399 550 1395 c 6
 -51 30 l 261
 220 30 l 6
 224 30 225 29 224 25 c 6
 219 5 l 6
 218 1 218 0 214 0 c 6
 -93 0 l 6
 -97 0 -98 1 -96 5 c 6
EndSplineSet
EndChar

StartChar: a
Encoding: 97 97 38
Width: 315
VWidth: 1104
Flags: HMW
AnchorPoint: "ogonek" 126 0 basechar 0
AnchorPoint: "top" 290 1050 basechar 0
AnchorPoint: "bottom" 27 0 basechar 0
LayerCount: 2
Fore
SplineSet
165 206 m 5
 129 47 70 -3 20 -3 c 4
 -21 -3 -49 43 -16 191 c 6
 127 825 l 6
 166 999 214 1055 273 1055 c 4
 349 1055 323 903 291 758 c 5
 276 747 l 5
 304 872 335 1027 263 1027 c 4
 230 1027 189 972 159 838 c 6
 10 179 l 6
 -11 89 0 26 36 26 c 4
 77 26 129 98 154 209 c 5
 165 206 l 5
175 18 m 6
 172 6 l 6
 171 2 170 1 165 0 c 4
 109 -14 114 26 141 146 c 6
 311 899 l 6
 360 1053 l 6
 362 1058 365 1060 369 1060 c 6
 371 1060 l 6
 375 1060 376 1057 375 1053 c 6
 170 146 l 6
 151 63 142 20 168 22 c 4
 174 22 176 21 175 18 c 6
EndSplineSet
EndChar

StartChar: b
Encoding: 98 98 39
Width: 318
VWidth: 1104
Flags: HW
LayerCount: 2
Fore
SplineSet
290 1450 m 2
 306 1450 l 2
 310 1450 311 1448 310 1444 c 2
 27 151 l 5
 -21 -3 l 2
 -23 -8 -25 -10 -29 -10 c 2
 -31 -10 l 2
 -35 -10 -37 -7 -36 -3 c 2
 282 1444 l 2
 283 1448 286 1450 290 1450 c 2
169 846 m 1
 204 1005 261 1055 319 1055 c 0
 378 1055 396 1009 364 861 c 2
 224 227 l 2
 186 53 160 -3 93 -3 c 0
 10 -3 17 149 48 294 c 1
 60 305 l 1
 33 180 28 25 98 25 c 0
 140 25 164 80 193 214 c 2
 339 873 l 2
 359 963 358 1026 304 1026 c 0
 255 1026 204 954 180 843 c 1
 169 846 l 1
EndSplineSet
EndChar

StartChar: c
Encoding: 99 99 40
Width: 277
VWidth: 1104
Flags: HW
AnchorPoint: "top" 283 1050 basechar 0
AnchorPoint: "bottom" 66 0 basechar 0
LayerCount: 2
Fore
SplineSet
231 399 m 0
 215 326 198 252 182 182 c 0
 153 46 107 -5 45 -5 c 0
 -21 -5 -37 55 6 251 c 2
 128 801 l 2
 167 980 211 1054 282 1054 c 0
 336 1054 357 1004 331 878 c 0
 316 809 280 725 221 652 c 4
 220 651 219 648 215 648 c 6
 204 648 l 6
 200 648 197 650 198 651 c 4
 257 726 292 805 307 874 c 0
 332 996 308 1027 273 1027 c 0
 220 1027 188 947 159 813 c 2
 33 238 l 2
 -5 66 4 23 55 23 c 0
 93 23 131 44 161 184 c 0
 177 254 192 327 210 400 c 0
 210 402 212 404 216 404 c 2
 226 404 l 2
 230 404 231 401 231 399 c 0
EndSplineSet
EndChar

StartChar: d
Encoding: 100 100 41
Width: 304
VWidth: 1104
Flags: HW
LayerCount: 2
Fore
SplineSet
180 231 m 5
 145 70 104 -10 43 -10 c 4
 -1 -10 -36 31 4 215 c 6
 140 836 l 6
 175 998 224 1070 281 1070 c 4
 339 1070 346 979 311 818 c 5
 300 815 l 5
 326 936 321 1041 276 1041 c 4
 233 1041 198 951 175 848 c 6
 32 201 l 6
 5 75 15 19 58 19 c 4
 102 19 147 113 173 234 c 5
 180 231 l 5
467 1444 m 2
 152 6 l 2
 151 2 149 0 145 0 c 2
 130 0 l 2
 126 0 125 2 126 6 c 2
 157 149 l 1
 158 167 l 1
 438 1444 l 2
 439 1448 443 1450 447 1450 c 2
 463 1450 l 2
 467 1450 468 1448 467 1444 c 2
EndSplineSet
EndChar

StartChar: e
Encoding: 101 101 42
Width: 295
VWidth: 1104
Flags: HW
AnchorPoint: "ogonek" 88 15 basechar 0
AnchorPoint: "bottom" 61 0 basechar 0
AnchorPoint: "top" 290 1050 basechar 0
LayerCount: 2
Fore
SplineSet
232 398 m 0
 215 328 201 267 185 208 c 0
 138 38 100 -10 54 -10 c 0
 -9 -10 -21 80 18 258 c 2
 135 793 l 2
 173 965 225 1060 291 1060 c 0
 353 1060 351 979 324 824 c 0
 302 698 285 628 258 502 c 0
 258 500 256 497 252 497 c 2
 87 497 l 1
 93 523 l 1
 238 523 l 1
 334 970 330 1033 284 1033 c 0
 236 1033 194 935 166 805 c 2
 44 245 l 2
 15 111 13 17 61 17 c 0
 112 17 142 115 212 400 c 0
 212 402 216 403 220 403 c 2
 229 403 l 2
 233 403 233 401 232 398 c 0
EndSplineSet
EndChar

StartChar: f
Encoding: 102 102 43
Width: 201
VWidth: 1104
Flags: HW
LayerCount: 2
Fore
SplineSet
321 1025 m 6
 166 1025 l 6
 162 1025 160 1027 161 1031 c 6
 164 1044 l 6
 165 1048 167 1050 171 1050 c 6
 326 1050 l 6
 330 1050 332 1048 331 1044 c 6
 328 1031 l 6
 327 1027 325 1025 321 1025 c 6
280 1315 m 2
 305 1434 320 1476 415 1461 c 0
 421 1460 422 1458 421 1454 c 2
 418 1442 l 2
 417 1438 415 1436 408 1437 c 0
 335 1448 327 1398 309 1315 c 2
 -58 -354 l 2
 -59 -358 -61 -360 -65 -360 c 2
 -83 -360 l 2
 -87 -360 -89 -358 -88 -354 c 2
 280 1315 l 2
EndSplineSet
EndChar

StartChar: g
Encoding: 103 103 44
Width: 249
VWidth: 1104
Flags: HW
AnchorPoint: "top" 193 1050 basechar 0
LayerCount: 2
Fore
SplineSet
394 1254 m 0
 349 1084 322 1048 294 1031 c 1
 286 1041 l 1
 310 1050 330 1092 369 1255 c 0
 370 1258 372 1260 376 1260 c 2
 389 1260 l 2
 393 1260 395 1258 394 1254 c 0
78 153 m 2
 139 133 126 39 95 -106 c 0
 53 -297 14 -360 -43 -360 c 2
 -51 -360 l 2
 -103 -360 -119 -276 -84 -114 c 0
 -54 25 -9 118 47 156 c 1
 45 137 l 1
 4 100 -35 -20 -56 -115 c 0
 -90 -271 -72 -339 -43 -339 c 2
 -38 -339 l 2
 8 -339 41 -238 69 -106 c 0
 91 -7 115 105 64 121 c 2
 36 132 l 2
 5 151 -15 164 -5 209 c 0
 3 244 39 282 95 290 c 1
 93 281 l 1
 61 272 35 256 26 219 c 0
 18 183 32 177 52 165 c 2
 78 153 l 2
189 489 m 2
 268 855 l 2
 287 943 293 1042 259 1042 c 0
 223 1042 182 939 164 855 c 2
 83 489 l 2
 65 409 64 304 97 304 c 0
 131 304 170 404 189 489 c 2
219 502 m 2
 192 378 143 274 89 274 c 0
 27 274 31 378 58 502 c 2
 132 842 l 2
 160 970 202 1070 264 1070 c 0
 325 1070 322 970 294 842 c 2
 219 502 l 2
EndSplineSet
EndChar

StartChar: h
Encoding: 104 104 45
Width: 295
VWidth: 1104
Flags: HW
AnchorPoint: "bottom" 57 0 basechar 0
AnchorPoint: "top" 295 1450 basechar 0
LayerCount: 2
Fore
SplineSet
291 1450 m 2
 308 1450 l 2
 312 1450 313 1448 312 1444 c 2
 -4 6 l 2
 -5 2 -7 0 -11 0 c 2
 -27 0 l 2
 -31 0 -33 2 -32 6 c 2
 283 1444 l 2
 284 1448 287 1450 291 1450 c 2
172 839 m 1
 200 967 248 1060 303 1060 c 0
 355 1060 358 1001 332 881 c 2
 140 6 l 2
 139 2 138 0 134 0 c 2
 117 0 l 2
 113 0 112 2 113 6 c 2
 305 881 l 2
 323 963 332 1033 289 1033 c 4
 248 1033 198 926 172 805 c 1
 172 839 l 1
EndSplineSet
EndChar

StartChar: i
Encoding: 105 105 46
Width: 147
VWidth: 1104
Flags: HW
AnchorPoint: "bottom" -28 0 basechar 0
AnchorPoint: "ogonek" -28 0 basechar 0
LayerCount: 2
Fore
SplineSet
305 1426 m 2
 258 1216 l 2
 257 1212 256 1210 252 1210 c 2
 234 1210 l 2
 230 1210 229 1212 230 1216 c 2
 276 1426 l 2
 277 1430 278 1431 282 1431 c 2
 301 1431 l 2
 305 1431 306 1430 305 1426 c 2
220 1044 m 6
 -8 6 l 6
 -9 2 -9 0 -13 0 c 6
 -32 0 l 6
 -36 0 -38 2 -37 6 c 6
 192 1044 l 6
 193 1048 195 1050 199 1050 c 6
 216 1050 l 6
 220 1050 221 1048 220 1044 c 6
EndSplineSet
EndChar

StartChar: j
Encoding: 106 106 47
Width: 144
VWidth: 1104
Flags: HW
LayerCount: 2
Fore
SplineSet
-16 -59 m 2
 -63 -271 -101 -371 -148 -371 c 0
 -214 -371 -157 -199 -119 -107 c 0
 -117 -102 -115 -99 -110 -100 c 2
 -105 -101 l 2
 -102 -102 -102 -103 -104 -107 c 0
 -141 -199 -184 -345 -146 -345 c 0
 -115 -345 -88 -255 -45 -60 c 2
 196 1040 l 2
 198 1047 201 1050 208 1050 c 2
 217 1050 l 2
 224 1050 227 1047 225 1040 c 2
 -16 -59 l 2
309 1426 m 2
 264 1216 l 2
 263 1212 260 1210 256 1210 c 2
 238 1210 l 2
 234 1210 235 1212 236 1216 c 2
 281 1426 l 2
 282 1430 282 1431 286 1431 c 2
 305 1431 l 2
 309 1431 310 1430 309 1426 c 2
EndSplineSet
EndChar

StartChar: k
Encoding: 107 107 48
Width: 263
VWidth: 1104
Flags: HW
LayerCount: 2
Fore
SplineSet
289 1450 m 6
 306 1450 l 6
 310 1450 311 1448 310 1444 c 6
 -6 6 l 6
 -7 2 -7 0 -11 0 c 6
 -29 0 l 6
 -33 0 -35 2 -34 6 c 6
 282 1444 l 6
 283 1448 285 1450 289 1450 c 6
68 412 m 5
 337 1044 l 6
 340 1049 344 1050 348 1050 c 6
 361 1050 l 6
 365 1050 368 1049 364 1044 c 6
 65 367 l 5
 68 412 l 5
178 661 m 5
 200 709 l 5
 143 6 l 6
 144 2 145 1 141 0 c 6
 122 0 l 6
 117 0 114 2 114 6 c 6
 178 661 l 5
EndSplineSet
EndChar

StartChar: l
Encoding: 108 108 49
Width: 153
VWidth: 1104
Flags: HW
LayerCount: 2
Fore
SplineSet
290 1450 m 6
 308 1450 l 6
 312 1450 311 1448 310 1444 c 6
 -5 6 l 6
 -6 2 -7 0 -11 0 c 6
 -29 0 l 6
 -33 0 -34 2 -33 6 c 6
 282 1444 l 6
 283 1448 286 1450 290 1450 c 6
EndSplineSet
EndChar

StartChar: m
Encoding: 109 109 50
Width: 412
VWidth: 1104
Flags: HW
LayerCount: 2
Fore
SplineSet
305 839 m 1
 336 983 373 1060 424 1060 c 0
 466 1060 474 1000 449 885 c 2
 256 6 l 2
 255 2 253 0 249 0 c 2
 232 0 l 2
 228 0 227 2 228 6 c 2
 421 885 l 2
 438 965 439 1031 408 1031 c 4
 377 1031 333 939 304 805 c 1
 305 839 l 1
205 1050 m 2
 219 1050 l 2
 223 1050 225 1048 224 1044 c 2
 195 917 l 1
 196 901 l 1
 0 6 l 2
 -1 2 -1 0 -5 0 c 2
 -25 0 l 2
 -29 0 -31 2 -30 6 c 2
 198 1044 l 2
 199 1048 201 1050 205 1050 c 2
174 842 m 1
 204 979 247 1060 296 1060 c 0
 341 1060 346 1000 321 885 c 2
 128 6 l 2
 127 2 125 0 121 0 c 2
 104 0 l 2
 100 0 98 2 99 6 c 2
 292 885 l 2
 309 963 313 1031 282 1031 c 4
 251 1031 204 936 176 805 c 1
 174 842 l 1
EndSplineSet
EndChar

StartChar: n
Encoding: 110 110 51
Width: 295
VWidth: 1104
Flags: HW
AnchorPoint: "bottom" 53 0 basechar 0
AnchorPoint: "top" 304 1050 basechar 0
LayerCount: 2
Fore
SplineSet
202 1050 m 6
 218 1050 l 6
 222 1050 223 1048 222 1044 c 6
 190 902 l 5
 189 886 l 5
 -4 6 l 6
 -5 2 -7 0 -11 0 c 6
 -27 0 l 6
 -31 0 -33 2 -32 6 c 6
 196 1044 l 6
 197 1048 198 1050 202 1050 c 6
172 839 m 5
 200 967 240 1060 302 1060 c 4
 354 1060 358 1001 332 881 c 6
 140 6 l 6
 139 2 138 0 134 0 c 6
 117 0 l 6
 113 0 112 2 113 6 c 6
 305 881 l 6
 323 963 332 1033 289 1033 c 4
 248 1033 198 926 172 805 c 5
 172 839 l 5
EndSplineSet
EndChar

StartChar: o
Encoding: 111 111 52
Width: 306
VWidth: 1104
Flags: HW
AnchorPoint: "top" 290 1050 basechar 0
AnchorPoint: "bottom" 60 0 basechar 0
LayerCount: 2
Fore
SplineSet
6 221 m 6
 141 831 l 6
 178 998 230 1060 292 1060 c 4
 354 1060 380 998 343 831 c 6
 208 221 l 6
 171 54 118 -10 56 -10 c 4
 -6 -10 -31 54 6 221 c 6
33 208 m 6
 7 87 16 18 62 18 c 4
 108 18 150 87 176 208 c 6
 315 843 l 6
 341 964 331 1032 285 1032 c 4
 239 1032 199 964 173 843 c 6
 33 208 l 6
EndSplineSet
EndChar

StartChar: p
Encoding: 112 112 53
Width: 301
VWidth: 1104
Flags: HW
LayerCount: 2
Fore
SplineSet
165 829 m 5
 200 990 243 1070 304 1070 c 4
 348 1070 383 1029 343 845 c 6
 207 224 l 6
 172 62 123 -10 66 -10 c 4
 8 -10 1 81 36 242 c 5
 46 245 l 5
 20 124 25 19 70 19 c 4
 113 19 149 109 172 212 c 6
 314 859 l 6
 341 985 331 1041 288 1041 c 4
 244 1041 200 947 174 826 c 5
 165 829 l 5
-122 -388 m 6
 193 1044 l 6
 194 1048 194 1050 198 1050 c 6
 214 1050 l 6
 218 1050 220 1048 219 1044 c 6
 188 901 l 5
 187 883 l 5
 -93 -388 l 6
 -94 -392 -97 -394 -101 -394 c 6
 -117 -394 l 6
 -121 -394 -123 -392 -122 -388 c 6
EndSplineSet
EndChar

StartChar: q
Encoding: 113 113 54
Width: 302
VWidth: 1104
Flags: HW
LayerCount: 2
Fore
SplineSet
63 -360 m 6
 47 -360 l 6
 43 -360 41 -358 42 -354 c 6
 317 899 l 5
 365 1053 l 6
 367 1058 370 1060 374 1060 c 6
 376 1060 l 6
 380 1060 380 1057 379 1053 c 6
 70 -354 l 6
 69 -358 67 -360 63 -360 c 6
176 206 m 5
 141 47 87 -3 35 -3 c 4
 -18 -3 -36 43 -4 191 c 6
 135 825 l 6
 173 999 199 1055 261 1055 c 4
 336 1055 329 903 298 758 c 5
 283 747 l 5
 310 872 319 1027 256 1027 c 4
 218 1027 195 972 166 838 c 6
 21 179 l 6
 1 89 0 26 49 26 c 4
 94 26 141 98 165 209 c 5
 176 206 l 5
EndSplineSet
EndChar

StartChar: r
Encoding: 114 114 55
Width: 255
VWidth: 1104
Flags: HW
AnchorPoint: "top" 269 1050 basechar 0
AnchorPoint: "bottom" -25 0 basechar 0
LayerCount: 2
Fore
SplineSet
150 713 m 1
 153 770 l 1
 190 940 261 1060 320 1060 c 0
 394 1060 395 933 229 670 c 0
 226 666 224 663 220 663 c 2
 217 663 l 2
 211 663 214 666 216 670 c 0
 347 904 371 1031 312 1031 c 4
 262 1031 197 928 150 713 c 1
201 1050 m 10
 213 1050 l 2
 217 1050 220 1048 219 1044 c 2
 153 746 l 1
 156 741 l 1
 -5 6 l 2
 -6 2 -7 0 -11 0 c 2
 -29 0 l 2
 -33 0 -35 2 -34 6 c 2
 194 1044 l 2
 195 1048 197 1050 201 1050 c 10
EndSplineSet
EndChar

StartChar: s
Encoding: 115 115 56
Width: 276
VWidth: 1104
Flags: HW
AnchorPoint: "top" 275 1050 basechar 0
AnchorPoint: "bottom" 42 0 basechar 0
LayerCount: 2
Fore
SplineSet
87 393 m 2
 99 393 l 2
 103 393 104 390 102 387 c 0
 74 336 39 269 23 199 c 0
 -5 69 5 18 43 18 c 0
 89 18 131 111 155 222 c 0
 210 475 74 525 144 843 c 0
 183 1022 232 1070 279 1070 c 0
 335 1070 347 1001 306 842 c 4
 293 792 270 735 229 677 c 0
 227 674 229 672 225 672 c 2
 212 672 l 2
 208 672 206 675 208 678 c 0
 246 726 265 793 279 844 c 4
 313 975 318 1042 274 1042 c 0
 233 1042 199 967 172 843 c 0
 105 540 241 481 184 222 c 0
 149 62 90 -10 43 -10 c 0
 -9 -10 -40 28 -7 177 c 0
 11 257 55 342 82 388 c 0
 84 391 83 393 87 393 c 2
EndSplineSet
EndChar

StartChar: t
Encoding: 116 116 57
Width: 199
VWidth: 1104
Flags: HW
AnchorPoint: "bottom" 32 0 basechar 0
LayerCount: 2
Fore
SplineSet
316 1025 m 2
 158 1025 l 2
 154 1025 153 1027 154 1031 c 2
 156 1044 l 2
 157 1048 159 1050 163 1050 c 2
 321 1050 l 2
 325 1050 327 1048 326 1044 c 2
 323 1031 l 2
 322 1027 320 1025 316 1025 c 2
100 18 m 2
 97 6 l 2
 96 2 97 1 92 0 c 0
 0 -14 -6 26 20 146 c 2
 293 1393 l 6
 294 1397 295 1399 299 1399 c 6
 315 1399 l 6
 319 1399 322 1397 321 1393 c 6
 47 146 l 2
 29 63 14 10 93 22 c 0
 99 23 101 21 100 18 c 2
EndSplineSet
EndChar

StartChar: u
Encoding: 117 117 58
Width: 296
VWidth: 1104
Flags: HW
AnchorPoint: "ogonek" 118 0 basechar 0
AnchorPoint: "bottom" 49 0 basechar 0
AnchorPoint: "top" 287 1050 basechar 0
LayerCount: 2
Fore
SplineSet
134 0 m 2
 118 0 l 2
 114 0 113 2 114 6 c 2
 146 148 l 1
 148 164 l 1
 340 1044 l 2
 341 1048 344 1050 348 1050 c 2
 364 1050 l 2
 368 1050 370 1048 369 1044 c 2
 142 6 l 2
 141 2 138 0 134 0 c 2
165 211 m 1
 137 83 97 -10 35 -10 c 0
 -17 -10 -21 49 5 169 c 2
 197 1044 l 2
 198 1048 198 1050 202 1050 c 2
 220 1050 l 2
 224 1050 225 1048 224 1044 c 2
 32 169 l 2
 14 87 4 17 47 17 c 0
 88 17 139 124 165 245 c 1
 165 211 l 1
EndSplineSet
EndChar

StartChar: v
Encoding: 118 118 59
Width: 253
VWidth: 1104
Flags: HW
LayerCount: 2
Fore
SplineSet
57 73 m 1
 347 1044 l 2
 349 1048 351 1050 355 1050 c 2
 366 1050 l 2
 370 1050 372 1048 371 1044 c 2
 59 6 l 2
 56 1 54 0 50 0 c 2
 24 0 l 2
 20 0 19 2 18 6 c 2
 156 1044 l 2
 157 1048 158 1050 162 1050 c 2
 175 1050 l 2
 179 1050 181 1048 180 1044 c 2
 57 73 l 1
EndSplineSet
EndChar

StartChar: w
Encoding: 119 119 60
Width: 403
VWidth: 1104
Flags: HW
LayerCount: 2
Fore
SplineSet
207 56 m 1
 490 1044 l 2
 492 1048 494 1050 498 1050 c 2
 512 1050 l 2
 516 1050 517 1048 515 1044 c 2
 214 6 l 2
 212 2 210 0 206 0 c 2
 180 0 l 2
 177 0 174 1 174 6 c 2
 327 971 l 1
 58 6 l 2
 56 1 55 0 51 0 c 2
 23 0 l 6
 19 0 17 1 17 6 c 6
 164 1044 l 2
 164 1048 164 1050 168 1050 c 2
 183 1050 l 2
 187 1050 188 1048 188 1044 c 2
 51 56 l 1
 328 1044 l 2
 330 1048 331 1050 335 1050 c 2
 351 1050 l 2
 354 1050 357 1048 356 1044 c 2
 207 56 l 1
EndSplineSet
EndChar

StartChar: x
Encoding: 120 120 61
Width: 248
VWidth: 1104
Flags: HW
LayerCount: 2
Fore
SplineSet
-47 0 m 2
 -67 0 l 2
 -71 0 -71 1 -69 6 c 2
 132 540 l 1
 161 1044 l 2
 161 1049 163 1050 167 1050 c 2
 185 1050 l 2
 189 1050 189 1049 189 1044 c 2
 160 589 l 1
 326 1044 l 2
 328 1049 329 1050 333 1050 c 2
 353 1050 l 2
 357 1050 358 1049 356 1044 c 2
 167 548 l 5
 123 6 l 2
 123 1 122 0 118 0 c 2
 96 0 l 2
 92 0 92 1 92 6 c 2
 141 507 l 1
 -41 6 l 2
 -43 1 -43 0 -47 0 c 2
EndSplineSet
EndChar

StartChar: y
Encoding: 121 121 62
Width: 276
VWidth: 1104
Flags: HW
AnchorPoint: "top" 283 1050 basechar 0
LayerCount: 2
Fore
SplineSet
68 58 m 1
 361 1044 l 2
 363 1048 365 1050 369 1050 c 2
 385 1050 l 2
 389 1050 388 1048 387 1044 c 2
 52 -64 l 2
 -12 -271 -60 -371 -107 -371 c 0
 -173 -371 -117 -199 -79 -107 c 0
 -77 -102 -75 -99 -70 -100 c 2
 -64 -101 l 2
 -61 -102 -61 -103 -63 -107 c 0
 -100 -199 -143 -345 -105 -345 c 0
 -62 -345 -8 -171 39 -14 c 5
 172 1044 l 2
 172 1048 172 1050 176 1050 c 2
 192 1050 l 2
 196 1050 198 1048 198 1044 c 2
 68 58 l 1
EndSplineSet
EndChar

StartChar: z
Encoding: 122 122 63
Width: 247
VWidth: 1104
Flags: HW
AnchorPoint: "top" 269 1050 basechar 0
LayerCount: 2
Fore
SplineSet
-64 6 m 2
 321 1022 l 1
 190 1022 l 2
 185 1022 184 1022 185 1027 c 2
 189 1044 l 2
 190 1047 191 1050 196 1050 c 2
 353 1050 l 2
 357 1050 359 1049 357 1044 c 2
 -27 28 l 1
 124 28 l 2
 128 28 130 27 129 23 c 2
 125 6 l 2
 124 2 123 0 119 0 c 2
 -61 0 l 2
 -65 0 -66 1 -64 6 c 2
EndSplineSet
EndChar

StartChar: comma
Encoding: 44 44 65
Width: 275
VWidth: 1920
Flags: HMW
LayerCount: 2
Fore
SplineSet
-64 -210 m 6
 -66 -210 l 6
 -73 -210 -74 -208 -70 -200 c 6
 14 0 l 261
 8 0 l 6
 -1 0 -2 1 0 10 c 6
 44 200 l 6
 46 207 49 210 56 210 c 6
 76 210 l 6
 83 210 86 207 84 200 c 6
 43 20 l 6
 41 13 40 7 36 0 c 6
 -52 -200 l 6
 -56 -209 -58 -210 -64 -210 c 6
EndSplineSet
EndChar

StartChar: exclam
Encoding: 33 33 67
Width: 275
VWidth: 1920
Flags: HMW
LayerCount: 2
Fore
SplineSet
28 0 m 2
 8 0 l 2
 1 0 -2 3 0 10 c 2
 44 200 l 2
 46 207 49 210 56 210 c 2
 76 210 l 2
 83 210 86 207 84 200 c 2
 40 10 l 2
 38 3 35 0 28 0 c 2
221 950 m 6
 334 1440 l 6
 336 1447 340 1450 347 1450 c 6
 357 1450 l 6
 364 1450 366 1447 364 1440 c 6
 251 950 l 6
 249 943 231 857 228 850 c 6
 130 440 l 6
 128 433 124 430 117 430 c 6
 115 430 l 6
 108 430 106 433 108 440 c 6
 200 850 l 6
 202 857 219 943 221 950 c 6
EndSplineSet
EndChar

StartChar: quotesingle
Encoding: 39 39 70
Width: 275
VWidth: 1920
Flags: HMW
LayerCount: 2
Fore
SplineSet
235 930 m 2
 231 930 l 2
 224 930 222 933 223 940 c 2
 269 1150 l 6
 278 1187 280 1203 286 1230 c 6
 328 1410 l 2
 330 1417 333 1420 340 1420 c 2
 350 1420 l 2
 357 1420 360 1417 358 1410 c 2
 316 1230 l 6
 310 1203 306 1187 297 1150 c 6
 247 940 l 2
 244 933 242 930 235 930 c 2
EndSplineSet
EndChar

StartChar: question
Encoding: 63 63 71
Width: 396
VWidth: 1920
Flags: HMW
LayerCount: 2
Fore
SplineSet
78 0 m 6
 58 0 l 6
 51 0 48 3 50 10 c 6
 94 200 l 6
 96 207 99 210 106 210 c 6
 126 210 l 6
 133 210 136 207 134 200 c 6
 90 10 l 6
 88 3 85 0 78 0 c 6
162 400 m 6
 160 400 l 6
 156 400 154 401 155 404 c 4
 196 585 305 645 383 982 c 262
 441 1233 l 262
 464 1333 468 1437 410 1437 c 260
 340 1437 305 1321 283 1225 c 262
 221 957 l 6
 220 953 220 952 216 952 c 6
 196 952 l 6
 192 952 190 953 191 957 c 6
 253 1225 l 262
 279 1337 323 1467 417 1467 c 260
 505 1467 496 1345 471 1235 c 262
 415 994 l 262
 344 687 203 557 169 404 c 4
 168 401 165 400 162 400 c 6
EndSplineSet
EndChar

StartChar: parenleft
Encoding: 40 40 72
Width: 295
VWidth: 2048
Flags: HMW
LayerCount: 2
Fore
SplineSet
236 1219 m 258
 283 1421 350 1581 496 1609 c 0
 500 1610 502 1609 501 1605 c 2
 499 1600 l 2
 498 1597 496 1594 493 1593 c 0
 377 1562 315 1429 269 1229 c 258
 -11 16 l 258
 -57 -184 -57 -317 45 -348 c 4
 48 -349 49 -352 48 -355 c 2
 47 -360 l 2
 46 -364 45 -365 41 -364 c 0
 -93 -336 -86 -176 -39 26 c 258
 236 1219 l 258
EndSplineSet
EndChar

StartChar: parenright
Encoding: 41 41 73
Width: 294
VWidth: 2048
Flags: HMW
LayerCount: 2
Fore
SplineSet
145 26 m 258
 98 -176 -8 -336 -154 -364 c 0
 -158 -365 -159 -364 -158 -360 c 2
 -157 -355 l 2
 -156 -352 -154 -349 -151 -348 c 0
 -35 -317 67 -184 113 16 c 258
 393 1229 l 258
 439 1429 399 1562 297 1593 c 4
 294 1594 293 1597 294 1600 c 6
 296 1605 l 2
 297 1609 297 1610 301 1609 c 0
 435 1581 467 1421 420 1219 c 258
 145 26 l 258
EndSplineSet
EndChar

StartChar: asterisk
Encoding: 42 42 74
Width: 500
VWidth: 2048
Flags: HMW
LayerCount: 2
Fore
SplineSet
409 1205 m 261
 409 1215 l 261
 586 1283 l 6
 590 1284 592 1285 596 1286 c 6
 622 1290 l 6
 626 1291 628 1289 628 1285 c 6
 630 1267 l 6
 630 1263 629 1262 625 1261 c 6
 600 1250 l 6
 596 1249 594 1247 590 1246 c 6
 409 1205 l 261
404 1207 m 257
 414 1213 l 257
 497 1080 l 2
 498 1077 500 1075 501 1072 c 2
 507 1049 l 2
 508 1046 508 1044 505 1042 c 2
 486 1030 l 2
 483 1028 480 1029 479 1032 c 2
 465 1049 l 2
 464 1052 462 1055 461 1058 c 2
 404 1207 l 257
405 1213 m 257
 413 1207 l 257
 286 1057 l 2
 283 1054 282 1052 279 1049 c 2
 257 1031 l 2
 254 1028 252 1028 249 1030 c 2
 236 1042 l 2
 233 1044 233 1046 236 1049 c 2
 253 1071 l 2
 256 1074 258 1076 261 1079 c 2
 405 1213 l 257
412 1215 m 257
 406 1205 l 257
 245 1246 l 2
 241 1247 240 1248 236 1249 c 2
 216 1260 l 2
 212 1261 213 1263 215 1267 c 2
 225 1285 l 2
 227 1289 228 1290 232 1289 c 2
 256 1285 l 2
 260 1284 261 1283 265 1282 c 2
 412 1215 l 257
414 1210 m 257
 403 1210 l 257
 430 1385 l 2
 431 1389 431 1391 432 1395 c 2
 442 1420 l 2
 443 1424 445 1425 449 1425 c 2
 468 1425 l 2
 472 1425 473 1424 472 1420 c 2
 470 1395 l 2
 469 1391 469 1389 468 1385 c 2
 414 1210 l 257
EndSplineSet
EndChar

StartChar: at
Encoding: 64 64 75
Width: 770
VWidth: 1920
Flags: HMW
LayerCount: 2
Fore
SplineSet
399 199 m 257
 372 84 327 -5 249 -5 c 256
 185 -5 172 61 207 211 c 258
 351 838 l 258
 388 998 425 1055 489 1055 c 260
 558 1055 582 966 555 851 c 257
 536 841 l 257
 560 946 535 1025 487 1025 c 256
 433 1025 408 956 384 851 c 258
 234 199 l 258
 210 94 217 25 261 25 c 256
 319 25 366 104 390 209 c 257
 399 199 l 257
374 -312 m 0
 333 -342 268 -365 188 -365 c 256
 -56 -365 -74 -191 -19 49 c 258
 199 990 l 258
 258 1245 372 1405 596 1405 c 256
 844 1405 845 1232 795 1016 c 258
 614 235 l 258
 572 55 531 -5 453 -5 c 256
 375 -5 355 55 380 165 c 258
 559 941 l 257
 598 1061 l 2
 599 1064 601 1067 605 1067 c 2
 612 1067 l 2
 616 1067 618 1065 617 1061 c 2
 415 185 l 258
 393 88 396 25 460 25 c 256
 514 25 552 95 584 235 c 258
 765 1016 l 258
 813 1226 797 1375 589 1375 c 256
 391 1375 283 1226 230 996 c 258
 10 45 l 258
 -38 -165 -29 -335 195 -335 c 256
 271 -335 323 -312 365 -284 c 0
 370 -281 372 -282 372 -286 c 2
 378 -303 l 2
 378 -307 378 -309 374 -312 c 0
EndSplineSet
EndChar

StartChar: dollar
Encoding: 36 36 76
Width: 374
VWidth: 960
Flags: HMW
LayerCount: 2
Fore
SplineSet
61 524 m 2
 81 524 l 2
 82 524 86 524 85 520 c 2
 26 258 l 6
 -13 87 10 25 66 25 c 256
 119 25 197 88 245 294 c 256
 278 439 241 595 215 712 c 0
 183 855 179 971 224 1166 c 256
 263 1336 307 1405 396 1405 c 256
 489 1405 487 1328 446 1150 c 2
 390 906 l 2
 389 902 387 902 384 902 c 2
 364 902 l 2
 361 902 359 903 360 906 c 2
 416 1146 l 2
 457 1324 448 1375 389 1375 c 256
 318 1375 287 1311 254 1166 c 256
 210 976 214 869 247 732 c 0
 276 611 316 472 275 294 c 256
 224 71 134 -5 59 -5 c 256
 -12 -5 -52 55 -11 234 c 2
 55 520 l 2
 56 524 60 524 61 524 c 2
426 1590 m 2
 436 1590 l 2
 440 1590 441 1589 440 1585 c 2
 31 -185 l 2
 30 -189 29 -190 25 -190 c 2
 15 -190 l 2
 11 -190 10 -189 11 -185 c 2
 420 1585 l 2
 421 1589 422 1590 426 1590 c 2
EndSplineSet
EndChar

StartChar: numbersign
Encoding: 35 35 77
Width: 502
VWidth: 1920
Flags: HMW
LayerCount: 2
Fore
SplineSet
53 485 m 2
 393 485 l 2
 397 485 398 484 397 480 c 2
 392 460 l 2
 391 456 390 455 386 455 c 2
 46 455 l 2
 42 455 41 456 42 460 c 2
 47 480 l 2
 48 484 49 485 53 485 c 2
218 1025 m 2
 558 1025 l 2
 562 1025 562 1024 561 1020 c 2
 557 1000 l 2
 556 996 555 995 551 995 c 2
 211 995 l 2
 207 995 206 996 207 1000 c 2
 211 1020 l 2
 212 1024 214 1025 218 1025 c 2
584 1400 m 6
 604 1400 l 2
 609 1400 609 1399 607 1395 c 2
 123 5 l 2
 121 1 121 0 116 0 c 2
 96 0 l 6
 91 0 91 1 93 5 c 6
 577 1395 l 6
 579 1399 579 1400 584 1400 c 6
459 1400 m 2
 479 1400 l 2
 483 1400 484 1399 482 1395 c 2
 -2 5 l 2
 -4 1 -5 0 -9 0 c 2
 -29 0 l 2
 -33 0 -34 1 -32 5 c 2
 452 1395 l 2
 454 1399 455 1400 459 1400 c 2
EndSplineSet
EndChar

StartChar: slash
Encoding: 47 47 78
Width: 380
VWidth: 2048
Flags: HMW
LayerCount: 2
Fore
SplineSet
564 1395 m 6
 -89 -95 l 6
 -92 -99 -93 -100 -97 -100 c 6
 -115 -100 l 2
 -119 -100 -121 -99 -119 -95 c 2
 534 1395 l 2
 536 1399 539 1400 542 1400 c 2
 560 1400 l 6
 564 1400 566 1399 564 1395 c 6
EndSplineSet
EndChar

StartChar: percent
Encoding: 37 37 79
Width: 677
VWidth: 2048
Flags: HMW
LayerCount: 2
Fore
SplineSet
197 985 m 262
 251 1216 l 262
 280 1341 308 1405 396 1405 c 260
 484 1405 490 1341 461 1216 c 262
 407 985 l 262
 378 860 344 795 256 795 c 260
 168 795 168 860 197 985 c 262
225 975 m 262
 205 890 198 825 262 825 c 260
 326 825 355 890 375 975 c 262
 433 1226 l 262
 453 1311 453 1375 389 1375 c 260
 325 1375 303 1311 283 1226 c 262
 225 975 l 262
300 185 m 262
 359 442 l 262
 388 567 418 631 506 631 c 260
 594 631 598 567 569 442 c 262
 510 185 l 262
 481 60 447 -5 359 -5 c 260
 271 -5 271 60 300 185 c 262
327 175 m 262
 307 90 302 25 366 25 c 260
 430 25 457 90 477 175 c 262
 541 452 l 262
 561 537 563 601 499 601 c 260
 435 601 411 537 391 452 c 262
 327 175 l 262
816 1395 m 6
 -27 5 l 6
 -30 1 -32 0 -36 0 c 6
 -56 0 l 6
 -60 0 -60 1 -57 5 c 6
 786 1395 l 6
 789 1399 791 1400 795 1400 c 6
 815 1400 l 6
 819 1400 819 1399 816 1395 c 6
EndSplineSet
EndChar

StartChar: hyphen
Encoding: 45 45 80
Width: 329
VWidth: 1920
Flags: HMW
LayerCount: 2
Fore
SplineSet
61 603 m 14
 66 622 l 22
 67 626 69 627 73 627 c 14
 307 627 l 22
 311 627 313 626 312 622 c 14
 307 603 l 22
 306 599 304 598 300 598 c 14
 66 598 l 22
 62 598 60 599 61 603 c 14
EndSplineSet
EndChar

StartChar: underscore
Encoding: 95 95 81
Width: 450
VWidth: 1920
Flags: HMW
LayerCount: 2
Fore
SplineSet
-126 -24 m 14
 -121 -5 l 18
 -120 -1 -119 0 -115 0 c 10
 325 0 l 18
 329 0 330 -1 329 -5 c 10
 324 -24 l 22
 323 -28 322 -30 318 -30 c 14
 -122 -30 l 22
 -126 -30 -127 -28 -126 -24 c 14
EndSplineSet
EndChar

StartChar: plus
Encoding: 43 43 82
Width: 540
VWidth: 1920
Flags: HMW
LayerCount: 2
Fore
SplineSet
81 675 m 10
 86 697 l 18
 87 701 89 702 93 702 c 10
 531 702 l 22
 535 702 537 701 536 697 c 14
 531 675 l 22
 530 671 528 671 524 671 c 14
 86 671 l 18
 82 671 80 671 81 675 c 10
357 935 m 10
 375 935 l 18
 379 935 381 934 380 930 c 10
 264 430 l 18
 263 426 261 425 257 425 c 10
 239 425 l 18
 235 425 233 426 234 430 c 10
 350 930 l 18
 351 934 353 935 357 935 c 10
EndSplineSet
EndChar

StartChar: equal
Encoding: 61 61 83
Width: 530
VWidth: 1920
Flags: HMW
LayerCount: 2
Fore
SplineSet
22 419 m 14
 26 439 l 18
 27 443 29 444 33 444 c 10
 463 444 l 18
 467 444 467 443 466 439 c 10
 462 419 l 22
 461 415 460 414 456 414 c 14
 26 414 l 22
 22 414 21 415 22 419 c 14
53 556 m 10
 58 576 l 18
 59 580 60 581 64 581 c 10
 494 581 l 18
 498 581 499 580 498 576 c 10
 493 556 l 18
 492 552 491 551 487 551 c 10
 57 551 l 18
 53 551 52 552 53 556 c 10
EndSplineSet
EndChar

StartChar: less
Encoding: 60 60 84
Width: 489
VWidth: 1920
Flags: HMW
LayerCount: 2
Fore
SplineSet
399 362 m 6
 65 591 l 6
 62 593 62 595 63 599 c 6
 64 601 l 6
 65 605 67 607 70 609 c 6
 508 838 l 6
 511 840 513 840 512 836 c 6
 508 818 l 6
 507 814 505 812 502 810 c 6
 98 600 l 261
 405 390 l 6
 408 388 408 386 407 382 c 6
 403 364 l 6
 402 360 402 360 399 362 c 6
EndSplineSet
EndChar

StartChar: greater
Encoding: 62 62 85
Width: 489
VWidth: 1920
Flags: HMW
LayerCount: 2
Fore
SplineSet
127 838 m 6
 461 609 l 6
 464 607 464 605 463 601 c 6
 462 599 l 6
 461 595 459 593 456 591 c 6
 18 362 l 6
 15 360 13 360 14 364 c 6
 18 382 l 6
 19 386 21 388 24 390 c 6
 429 600 l 261
 121 810 l 6
 118 812 118 814 119 818 c 6
 123 836 l 6
 124 840 124 840 127 838 c 6
EndSplineSet
EndChar

StartChar: backslash
Encoding: 92 92 86
Width: 379
VWidth: 2048
Flags: HMW
LayerCount: 2
Fore
SplineSet
215 -95 m 6
 215 -99 213 -100 209 -100 c 6
 191 -100 l 2
 187 -100 186 -99 185 -95 c 2
 220 1395 l 2
 220 1399 222 1400 226 1400 c 2
 244 1400 l 6
 247 1400 250 1399 250 1395 c 6
 215 -95 l 6
EndSplineSet
EndChar

StartChar: bracketleft
Encoding: 91 91 87
Width: 275
VWidth: 1920
Flags: HMW
LayerCount: 2
Fore
SplineSet
349 1575 m 261
 -92 -335 l 261
 48 -335 l 2
 52 -335 53 -336 52 -340 c 2
 48 -355 l 2
 47 -359 46 -360 42 -360 c 2
 -123 -360 l 2
 -127 -360 -128 -359 -127 -355 c 2
 323 1595 l 2
 324 1599 325 1600 329 1600 c 2
 494 1600 l 2
 498 1600 499 1599 498 1595 c 2
 495 1580 l 2
 494 1576 493 1575 489 1575 c 2
 349 1575 l 261
EndSplineSet
EndChar

StartChar: braceleft
Encoding: 123 123 88
Width: 288
VWidth: 2048
Flags: HMW
LayerCount: 2
Fore
SplineSet
330 1439 m 258
 356 1553 377 1599 481 1600 c 0
 485 1600 487 1599 486 1595 c 2
 483 1580 l 2
 482 1576 480 1575 476 1575 c 0
 416 1573 387 1556 360 1439 c 262
 210 788 l 258
 189 696 160 644 96 620 c 257
 148 596 153 544 132 452 c 258
 -18 -199 l 258
 -42 -305 -23 -332 34 -335 c 0
 39 -335 41 -336 40 -340 c 2
 36 -355 l 2
 35 -359 33 -360 29 -360 c 0
 -74 -358 -74 -313 -48 -199 c 258
 102 452 l 258
 122 538 115 590 71 606 c 0
 67 608 66 609 67 613 c 2
 70 627 l 2
 71 631 72 633 76 634 c 0
 130 650 160 701 180 788 c 258
 330 1439 l 258
EndSplineSet
EndChar

StartChar: bracketright
Encoding: 93 93 89
Width: 275
VWidth: 1920
Flags: HMW
LayerCount: 2
Fore
SplineSet
-27 -335 m 261
 414 1575 l 257
 274 1575 l 2
 270 1575 269 1576 270 1580 c 2
 273 1595 l 2
 274 1599 275 1600 279 1600 c 2
 444 1600 l 2
 448 1600 449 1599 448 1595 c 2
 -2 -355 l 2
 -3 -359 -4 -360 -8 -360 c 2
 -173 -360 l 2
 -177 -360 -178 -359 -177 -355 c 2
 -173 -340 l 6
 -172 -336 -171 -335 -167 -335 c 6
 -27 -335 l 261
EndSplineSet
EndChar

StartChar: braceright
Encoding: 125 125 90
Width: 288
VWidth: 2048
Flags: HMW
LayerCount: 2
Fore
SplineSet
4 -199 m 258
 -22 -313 -43 -359 -147 -360 c 0
 -151 -360 -153 -359 -152 -355 c 2
 -148 -340 l 2
 -147 -336 -145 -335 -141 -335 c 0
 -81 -333 -53 -316 -26 -199 c 262
 124 452 l 258
 145 544 174 596 238 620 c 257
 186 644 181 696 202 788 c 258
 352 1439 l 258
 376 1545 358 1572 301 1575 c 0
 296 1575 294 1576 295 1580 c 2
 298 1595 l 2
 299 1599 301 1600 305 1600 c 0
 408 1598 408 1553 382 1439 c 258
 232 788 l 258
 212 702 219 650 263 634 c 0
 267 632 269 631 268 627 c 2
 265 613 l 2
 264 609 262 607 258 606 c 0
 204 590 174 539 154 452 c 258
 4 -199 l 258
EndSplineSet
EndChar

StartChar: bar
Encoding: 124 124 91
Width: 285
VWidth: 1920
Flags: HMW
LayerCount: 2
Fore
SplineSet
387 1600 m 10
 397 1600 l 22
 404 1600 407 1597 405 1590 c 14
 -43 -350 l 22
 -45 -357 -48 -360 -55 -360 c 14
 -65 -360 l 18
 -72 -360 -75 -357 -73 -350 c 10
 375 1590 l 18
 377 1597 380 1600 387 1600 c 10
EndSplineSet
EndChar

StartChar: asciitilde
Encoding: 126 126 92
Width: 664
VWidth: 2048
Flags: HMW
LayerCount: 2
Fore
SplineSet
243 677 m 260
 187 677 142 617 121 526 c 0
 120 523 118 522 115 522 c 2
 95 522 l 2
 91 522 90 523 91 526 c 0
 117 630 168 707 253 707 c 256
 368 707 364 534 460 534 c 256
 516 534 562 593 583 684 c 0
 584 688 586 689 589 689 c 2
 608 689 l 2
 612 689 613 688 612 684 c 0
 586 580 535 504 450 504 c 256
 335 504 339 677 243 677 c 260
EndSplineSet
EndChar

StartChar: asciicircum
Encoding: 94 94 93
Width: 386
VWidth: 1920
Flags: HMW
LayerCount: 2
Fore
SplineSet
377 1321 m 261
 117 740 l 2
 114 734 108 730 101 730 c 2
 91 730 l 2
 84 730 83 734 87 740 c 2
 379 1390 l 2
 383 1399 387 1400 394 1400 c 2
 396 1400 l 2
 403 1400 407 1399 407 1390 c 2
 399 740 l 2
 401 734 403 730 391 730 c 2
 381 730 l 2
 371 730 370 734 369 740 c 2
 377 1321 l 261
EndSplineSet
EndChar

StartChar: figuredash
Encoding: 8210 8210 108
Width: 575
VWidth: 2048
Flags: HMW
LayerCount: 2
Fore
SplineSet
59 602 m 14
 63 621 l 22
 64 625 66 627 70 627 c 14
 555 627 l 22
 559 627 559 625 558 621 c 14
 554 602 l 22
 553 598 552 598 548 598 c 14
 63 598 l 22
 59 598 58 598 59 602 c 14
EndSplineSet
EndChar

StartChar: endash
Encoding: 8211 8211 109
Width: 550
VWidth: 2048
Flags: HMW
LayerCount: 2
Fore
SplineSet
59 602 m 10
 63 621 l 18
 64 625 66 627 70 627 c 10
 530 627 l 18
 534 627 534 625 533 621 c 10
 529 602 l 18
 528 598 527 598 523 598 c 10
 63 598 l 18
 59 598 58 598 59 602 c 10
EndSplineSet
EndChar

StartChar: emdash
Encoding: 8212 8212 110
Width: 1100
VWidth: 2048
Flags: HMW
LayerCount: 2
Fore
SplineSet
59 602 m 10
 63 621 l 22
 64 625 66 627 70 627 c 14
 1080 627 l 22
 1084 627 1084 625 1083 621 c 14
 1079 602 l 18
 1078 598 1077 598 1073 598 c 10
 63 598 l 18
 59 598 58 598 59 602 c 10
EndSplineSet
EndChar

StartChar: uni2015
Encoding: 8213 8213 111
Width: 1180
VWidth: 2048
Flags: HMW
LayerCount: 2
Fore
SplineSet
59 602 m 10
 63 621 l 22
 64 625 66 627 70 627 c 14
 1160 627 l 22
 1164 627 1164 625 1163 621 c 14
 1159 602 l 18
 1158 598 1157 598 1153 598 c 10
 63 598 l 18
 59 598 58 598 59 602 c 10
EndSplineSet
EndChar

StartChar: quoteleft
Encoding: 8216 8216 114
Width: 286
VWidth: 1920
Flags: HMW
LayerCount: 2
Fore
SplineSet
396 1470 m 6
 398 1470 l 6
 405 1470 406 1468 402 1460 c 6
 318 1260 l 261
 324 1260 l 6
 333 1260 334 1259 332 1250 c 6
 288 1060 l 6
 286 1053 282 1050 275 1050 c 6
 255 1050 l 6
 248 1050 246 1053 248 1060 c 6
 289 1240 l 6
 291 1247 292 1253 296 1260 c 6
 384 1460 l 6
 388 1469 390 1470 396 1470 c 6
EndSplineSet
EndChar

StartChar: quotereversed
Encoding: 8219 8219 117
Width: 286
VWidth: 1920
Flags: HMW
LayerCount: 2
Fore
SplineSet
288 1000 m 6
 282 1000 280 1001 280 1010 c 6
 284 1210 l 6
 284 1217 285 1223 287 1230 c 6
 329 1410 l 6
 331 1417 334 1420 341 1420 c 6
 361 1420 l 6
 368 1420 371 1417 369 1410 c 6
 325 1220 l 6
 323 1211 321 1210 312 1210 c 6
 306 1210 l 261
 298 1010 l 6
 298 1002 297 1000 290 1000 c 6
 288 1000 l 6
EndSplineSet
EndChar

StartChar: bullet
Encoding: 8226 8226 120
Width: 345
VWidth: 2048
Flags: HMW
LayerCount: 2
Fore
SplineSet
129 732 m 262
 129 759 l 262
 129 819 175 848 223 848 c 260
 271 848 323 819 323 759 c 262
 323 732 l 262
 323 672 271 642 223 642 c 260
 175 642 129 672 129 732 c 262
EndSplineSet
EndChar

StartChar: dagger
Encoding: 8224 8224 124
Width: 380
VWidth: 1920
Flags: HMW
LayerCount: 2
Fore
SplineSet
151 1024 m 14
 156 1045 l 18
 157 1049 158 1050 162 1050 c 10
 462 1050 l 18
 466 1050 467 1049 466 1045 c 10
 461 1024 l 22
 460 1020 459 1020 455 1020 c 14
 155 1020 l 22
 151 1020 150 1020 151 1024 c 14
383 1400 m 10
 403 1400 l 18
 407 1400 408 1399 407 1395 c 10
 86 5 l 18
 85 1 84 0 80 0 c 10
 60 0 l 18
 56 0 55 1 56 5 c 10
 377 1395 l 18
 378 1399 379 1400 383 1400 c 10
EndSplineSet
EndChar

StartChar: daggerdbl
Encoding: 8225 8225 125
Width: 380
VWidth: 1920
Flags: HMW
LayerCount: 2
Fore
SplineSet
-84 4 m 10
 -79 25 l 18
 -78 29 -77 30 -73 30 c 10
 227 30 l 18
 231 30 232 29 231 25 c 10
 226 4 l 18
 225 0 224 0 220 0 c 10
 -80 0 l 18
 -84 0 -85 0 -84 4 c 10
151 1024 m 14
 156 1045 l 18
 157 1049 158 1050 162 1050 c 10
 462 1050 l 18
 466 1050 467 1049 466 1045 c 10
 461 1024 l 22
 460 1020 459 1020 455 1020 c 14
 155 1020 l 22
 151 1020 150 1020 151 1024 c 14
383 1400 m 10
 403 1400 l 18
 407 1400 408 1399 407 1395 c 10
 3 -355 l 18
 2 -359 1 -360 -3 -360 c 10
 -23 -360 l 18
 -27 -360 -28 -359 -27 -355 c 10
 377 1395 l 18
 378 1399 379 1400 383 1400 c 10
EndSplineSet
EndChar

StartChar: perthousand
Encoding: 8240 8240 126
Width: 947
VWidth: 2048
Flags: HMW
LayerCount: 2
Fore
SplineSet
570 185 m 262
 629 442 l 262
 658 567 688 631 776 631 c 260
 864 631 868 567 839 442 c 262
 780 185 l 262
 751 60 717 -5 629 -5 c 260
 541 -5 541 60 570 185 c 262
597 175 m 262
 577 90 572 25 636 25 c 260
 700 25 727 90 747 175 c 262
 811 452 l 262
 831 537 833 601 769 601 c 260
 705 601 681 537 661 452 c 262
 597 175 l 262
197 985 m 262
 251 1216 l 262
 280 1341 308 1405 396 1405 c 260
 484 1405 490 1341 461 1216 c 262
 407 985 l 262
 378 860 344 795 256 795 c 260
 168 795 168 860 197 985 c 262
225 975 m 262
 205 890 198 825 262 825 c 260
 326 825 355 890 375 975 c 262
 433 1226 l 262
 453 1311 453 1375 389 1375 c 260
 325 1375 303 1311 283 1226 c 262
 225 975 l 262
300 185 m 262
 359 442 l 262
 388 567 418 631 506 631 c 260
 594 631 598 567 569 442 c 262
 510 185 l 262
 481 60 447 -5 359 -5 c 260
 271 -5 271 60 300 185 c 262
327 175 m 262
 307 90 302 25 366 25 c 260
 430 25 457 90 477 175 c 262
 541 452 l 262
 561 537 563 601 499 601 c 260
 435 601 411 537 391 452 c 262
 327 175 l 262
816 1395 m 6
 -27 5 l 6
 -30 1 -32 0 -36 0 c 6
 -56 0 l 6
 -60 0 -60 1 -57 5 c 6
 786 1395 l 6
 789 1399 791 1400 795 1400 c 6
 815 1400 l 6
 819 1400 819 1399 816 1395 c 6
EndSplineSet
EndChar

StartChar: uni2031
Encoding: 8241 8241 127
Width: 1217
VWidth: 2048
Flags: HMW
LayerCount: 2
Fore
SplineSet
840 185 m 262
 899 442 l 262
 928 567 958 631 1046 631 c 260
 1134 631 1138 567 1109 442 c 262
 1050 185 l 262
 1021 60 987 -5 899 -5 c 260
 811 -5 811 60 840 185 c 262
867 175 m 262
 847 90 842 25 906 25 c 260
 970 25 997 90 1017 175 c 262
 1081 452 l 262
 1101 537 1103 601 1039 601 c 260
 975 601 951 537 931 452 c 262
 867 175 l 262
570 185 m 258
 629 442 l 258
 658 567 688 631 776 631 c 256
 864 631 868 567 839 442 c 258
 780 185 l 258
 751 60 717 -5 629 -5 c 256
 541 -5 541 60 570 185 c 258
597 175 m 258
 577 90 572 25 636 25 c 256
 700 25 727 90 747 175 c 258
 811 452 l 258
 831 537 833 601 769 601 c 256
 705 601 681 537 661 452 c 258
 597 175 l 258
197 985 m 258
 251 1216 l 258
 280 1341 308 1405 396 1405 c 256
 484 1405 490 1341 461 1216 c 258
 407 985 l 258
 378 860 344 795 256 795 c 256
 168 795 168 860 197 985 c 258
225 975 m 258
 205 890 198 825 262 825 c 256
 326 825 355 890 375 975 c 258
 433 1226 l 258
 453 1311 453 1375 389 1375 c 256
 325 1375 303 1311 283 1226 c 258
 225 975 l 258
300 185 m 258
 359 442 l 258
 388 567 418 631 506 631 c 256
 594 631 598 567 569 442 c 258
 510 185 l 258
 481 60 447 -5 359 -5 c 256
 271 -5 271 60 300 185 c 258
327 175 m 258
 307 90 302 25 366 25 c 256
 430 25 457 90 477 175 c 258
 541 452 l 258
 561 537 563 601 499 601 c 256
 435 601 411 537 391 452 c 258
 327 175 l 258
816 1395 m 2
 -27 5 l 2
 -30 1 -32 0 -36 0 c 2
 -56 0 l 2
 -60 0 -60 1 -57 5 c 2
 786 1395 l 2
 789 1399 791 1400 795 1400 c 2
 815 1400 l 2
 819 1400 819 1399 816 1395 c 2
EndSplineSet
EndChar

StartChar: fraction
Encoding: 8260 8260 128
Width: 500
VWidth: 1920
Flags: HMW
LayerCount: 2
Fore
SplineSet
573 1292 m 14
 595 1283 l 18
 598 1282 596 1278 594 1273 c 10
 29 162 l 18
 27 157 25 157 21 158 c 10
 1 166 l 18
 -4 168 0 174 3 180 c 10
 564 1286 l 18
 567 1292 569 1293 573 1292 c 14
EndSplineSet
EndChar

StartChar: uni2074
Encoding: 8308 8308 129
Width: 269
VWidth: 1920
Flags: HMW
LayerCount: 2
Fore
SplineSet
330 891 m 2
 325 871 l 2
 325 869 323 868 321 868 c 2
 267 868 l 1
 213 633 l 2
 213 631 211 630 209 630 c 2
 185 630 l 2
 183 630 183 631 183 633 c 2
 237 868 l 1
 100 868 l 2
 98 868 98 869 98 871 c 2
 102 888 l 2
 102 890 104 895 105 897 c 2
 386 1467 l 2
 387 1469 387 1470 389 1470 c 2
 403 1470 l 2
 405 1470 406 1469 406 1467 c 2
 273 894 l 1
 327 894 l 2
 329 894 330 893 330 891 c 2
244 894 m 1
 351 1357 l 1
 125 894 l 1
 244 894 l 1
EndSplineSet
EndChar

StartChar: uni2073
Encoding: 8307 8307 130
Width: 305
VWidth: 1920
Flags: HMW
LayerCount: 2
Fore
SplineSet
138 875 m 2
 161 875 l 2
 163 875 163 873 163 871 c 2
 131 730 l 2
 119 680 130 651 176 651 c 0
 220 651 247 679 260 737 c 2
 313 968 l 2
 324 1016 318 1045 261 1045 c 2
 237 1045 l 2
 235 1045 235 1046 235 1048 c 2
 240 1068 l 2
 240 1070 241 1071 243 1071 c 2
 261 1071 l 2
 311 1071 327 1096 337 1141 c 2
 391 1374 l 2
 402 1421 398 1448 357 1448 c 0
 316 1448 299 1417 287 1364 c 2
 250 1204 l 2
 250 1202 247 1201 245 1201 c 2
 222 1201 l 2
 220 1201 221 1202 221 1204 c 2
 258 1364 l 2
 274 1434 302 1475 364 1475 c 0
 426 1475 437 1442 421 1373 c 2
 370 1152 l 2
 352 1076 323 1055 259 1055 c 1
 267 1064 l 1
 343 1064 359 1036 341 960 c 2
 289 736 l 2
 272 663 239 625 169 625 c 0
 104 625 85 660 101 729 c 2
 134 871 l 2
 134 873 136 875 138 875 c 2
EndSplineSet
EndChar

StartChar: uni2072
Encoding: 8306 8306 131
Width: 251
VWidth: 1920
Flags: HMW
LayerCount: 2
Fore
SplineSet
97 714 m 2
 146 927 293 1037 335 1217 c 2
 359 1321 l 2
 383 1424 384 1456 349 1456 c 0
 311 1456 291 1399 273 1322 c 2
 228 1128 l 2
 228 1126 227 1125 225 1125 c 2
 202 1125 l 2
 200 1125 199 1126 199 1128 c 2
 244 1321 l 2
 269 1430 298 1482 355 1482 c 0
 414 1482 415 1440 387 1318 c 2
 369 1240 l 2
 319 1025 172 914 129 729 c 2
 115 665 l 1
 245 665 l 2
 247 665 247 663 247 661 c 2
 242 640 l 2
 242 638 240 637 238 637 c 2
 82 637 l 2
 80 637 80 638 80 640 c 2
 97 714 l 2
EndSplineSet
EndChar

StartChar: uni2070
Encoding: 8304 8304 132
Width: 335
VWidth: 1920
Flags: HMW
LayerCount: 2
Fore
SplineSet
145 777 m 2
 271 1323 l 2
 294 1421 317 1475 389 1475 c 0
 461 1475 456 1421 433 1323 c 2
 307 777 l 2
 284 679 264 625 192 625 c 0
 120 625 122 679 145 777 c 2
177 783 m 2
 160 709 149 651 198 651 c 0
 247 651 262 709 279 783 c 2
 402 1317 l 2
 419 1391 432 1450 383 1450 c 0
 334 1450 317 1391 300 1317 c 2
 177 783 l 2
EndSplineSet
EndChar

StartChar: uni2075
Encoding: 8309 8309 133
Width: 327
VWidth: 1920
Flags: HMW
LayerCount: 2
Fore
SplineSet
168 841 m 6
 190 841 l 6
 192 841 193 841 193 839 c 4
 157 683 159 643 189 643 c 4
 224 643 249 707 274 815 c 6
 315 990 l 6
 345 1120 344 1159 321 1159 c 4
 297 1159 276 1116 245 1016 c 4
 245 1014 241 1013 239 1013 c 6
 214 1013 l 6
 212 1013 212 1014 213 1016 c 6
 335 1460 l 6
 336 1462 338 1463 340 1463 c 6
 475 1463 l 6
 477 1463 476 1462 476 1460 c 6
 474 1453 l 6
 471 1440 462 1437 410 1437 c 6
 356 1437 l 5
 243 1037 l 5
 238 1037 l 5
 258 1105 289 1186 333 1186 c 4
 378 1186 378 1136 342 982 c 6
 300 801 l 6
 270 669 239 618 185 618 c 4
 133 618 123 653 164 838 c 4
 164 840 166 841 168 841 c 6
EndSplineSet
EndChar

StartChar: uni2076
Encoding: 8310 8310 134
Width: 318
VWidth: 1920
Flags: HMW
LayerCount: 2
Fore
SplineSet
300 1081 m 0
 257 1081 227 1041 214 986 c 2
 209 966 l 1
 208 995 l 1
 224 1065 256 1107 311 1107 c 0
 369 1107 378 1067 357 975 c 2
 306 754 l 2
 286 669 260 625 191 625 c 0
 103 625 114 681 139 790 c 2
 258 1303 l 2
 286 1423 309 1475 379 1475 c 0
 449 1475 443 1424 425 1344 c 2
 393 1203 l 2
 393 1201 392 1200 390 1200 c 2
 368 1200 l 2
 366 1200 365 1201 365 1203 c 2
 397 1343 l 2
 412 1410 419 1449 374 1449 c 0
 330 1449 311 1410 286 1301 c 2
 161 758 l 2
 145 687 144 652 197 652 c 0
 244 652 261 688 277 756 c 2
 327 976 l 2
 345 1055 337 1081 300 1081 c 0
EndSplineSet
EndChar

StartChar: uni2077
Encoding: 8311 8311 135
Width: 221
VWidth: 1920
Flags: HMW
LayerCount: 2
Fore
SplineSet
408 1469 m 6
 105 635 l 6
 104 633 101 632 99 632 c 6
 77 632 l 6
 75 632 75 633 76 635 c 6
 376 1444 l 5
 230 1444 l 6
 228 1444 228 1445 228 1447 c 6
 233 1469 l 6
 233 1471 235 1472 237 1472 c 6
 407 1472 l 6
 409 1472 409 1471 408 1469 c 6
EndSplineSet
EndChar

StartChar: uni2078
Encoding: 8312 8312 136
Width: 281
VWidth: 1920
Flags: HMW
LayerCount: 2
Fore
SplineSet
170 658 m 4
 213 658 228 683 241 740 c 6
 294 969 l 6
 305 1018 307 1048 260 1048 c 4
 213 1048 201 1018 190 969 c 6
 137 740 l 6
 124 683 127 658 170 658 c 4
266 1074 m 4
 296 1074 317 1099 328 1148 c 6
 382 1382 l 6
 394 1433 383 1456 354 1456 c 4
 325 1456 302 1433 290 1382 c 6
 236 1148 l 6
 225 1099 236 1074 266 1074 c 4
273 1065 m 5
 335 1065 336 1028 320 958 c 6
 270 742 l 6
 253 667 235 632 164 632 c 4
 94 632 90 667 107 742 c 6
 157 958 l 6
 173 1028 192 1065 254 1065 c 5
 253 1058 l 5
 207 1060 194 1088 210 1159 c 6
 261 1380 l 6
 276 1447 302 1482 360 1482 c 4
 419 1482 426 1447 411 1380 c 6
 360 1159 l 6
 344 1088 316 1060 270 1058 c 5
 273 1065 l 5
EndSplineSet
EndChar

StartChar: uni2079
Encoding: 8313 8313 137
Width: 256
VWidth: 1920
Flags: HMW
LayerCount: 2
Fore
SplineSet
238 1019 m 4
 280 1019 310 1059 323 1114 c 6
 328 1135 l 5
 330 1105 l 5
 314 1035 281 994 228 994 c 4
 170 994 162 1033 183 1125 c 6
 234 1347 l 6
 254 1432 279 1475 348 1475 c 4
 436 1475 424 1420 399 1311 c 6
 280 798 l 6
 252 678 225 625 155 625 c 4
 85 625 83 677 101 757 c 6
 133 898 l 6
 133 900 134 901 136 901 c 6
 159 901 l 6
 161 901 161 900 161 898 c 6
 129 757 l 6
 114 690 116 652 161 652 c 4
 205 652 225 690 250 799 c 6
 376 1342 l 6
 392 1413 395 1449 343 1449 c 4
 297 1449 278 1412 262 1344 c 6
 212 1125 l 6
 194 1046 201 1019 238 1019 c 4
EndSplineSet
EndChar

StartChar: uni00B9
Encoding: 185 185 138
Width: 258
VWidth: 1920
Flags: HMW
LayerCount: 2
Fore
SplineSet
336 1465 m 0
 345 1469 350 1478 356 1501 c 0
 357 1505 357 1506 361 1506 c 2
 368 1506 l 2
 372 1506 372 1505 371 1501 c 2
 173 645 l 2
 172 641 171 640 167 640 c 2
 147 640 l 2
 143 640 142 641 143 645 c 2
 331 1459 l 2
 332 1463 334 1464 336 1465 c 0
EndSplineSet
EndChar

StartChar: cent
Encoding: 162 162 154
Width: 277
VWidth: 1920
Flags: HMW
LayerCount: 2
Fore
SplineSet
316.03125 1240 m 6
 326.03125 1240 l 6
 330.03125 1240 331.03125 1240 330.03125 1236 c 6
 2.03125 -186 l 6
 1.03125 -190 0.03125 -190 -3.96875 -190 c 6
 -13.96875 -190 l 6
 -17.96875 -190 -18.96875 -190 -17.96875 -186 c 6
 310.03125 1236 l 6
 311.03125 1240 312.03125 1240 316.03125 1240 c 6
EndSplineSet
Refer: 40 99 N 1 0 0 1 0 0 2
EndChar

StartChar: uni203D
Encoding: 8253 8253 157
Width: 396
VWidth: 1920
Flags: HMW
LayerCount: 2
Fore
SplineSet
280 950 m 2
 333 1180 l 2
 335 1187 339 1190 346 1190 c 2
 356 1190 l 2
 363 1190 365 1187 363 1180 c 2
 310 950 l 2
 308 943 290 857 287 850 c 2
 182 410 l 2
 180 403 176 400 169 400 c 2
 167 400 l 2
 160 400 158 403 160 410 c 2
 259 850 l 2
 261 857 278 943 280 950 c 2
90 0 m 2
 70 0 l 2
 63 0 60 3 62 10 c 2
 106 200 l 2
 108 207 111 210 118 210 c 2
 138 210 l 2
 145 210 148 207 146 200 c 2
 102 10 l 2
 100 3 97 0 90 0 c 2
174 400 m 2
 168 400 l 2
 164 400 166 401 167 404 c 0
 208 585 305 645 383 982 c 258
 429 1183 l 258
 452 1283 456 1387 398 1387 c 256
 328 1387 293 1271 271 1175 c 258
 221 957 l 2
 220 953 220 952 216 952 c 2
 196 952 l 2
 192 952 190 953 191 957 c 2
 241 1175 l 258
 267 1287 311 1417 405 1417 c 256
 493 1417 485 1295 460 1185 c 258
 415 994 l 258
 344 687 215 557 181 404 c 0
 180 401 177 400 174 400 c 2
EndSplineSet
EndChar

StartChar: ordfeminine
Encoding: 170 170 159
Width: 364
VWidth: 1920
Flags: HMW
LayerCount: 2
Fore
SplineSet
178 834 m 4
 154 730 153 669 187 669 c 260
 229 669 295 806 329 952 c 261
 327 902 l 261
 294 759 237 639 181 639 c 260
 129 639 117 699 148 834 c 4
 183 985 210 1035 293 1096 c 260
 336 1128 377 1159 396 1242 c 261
 397 1202 l 261
 382 1139 349 1113 295 1071 c 260
 247 1034 208 964 178 834 c 4
306 852 m 262
 400 1262 l 262
 418 1342 444 1459 396 1459 c 260
 346 1459 325 1362 294 1226 c 4
 293 1220 291 1217 287 1217 c 6
 265 1217 l 6
 261 1217 262 1220 263 1226 c 4
 310 1379 315 1489 403 1489 c 260
 478 1489 461 1395 413 1187 c 262
 336 852 l 262
 314 758 310 693 318 651 c 4
 319 646 319 644 315 644 c 6
 295 644 l 6
 291 644 289 646 288 650 c 4
 280 693 284 757 306 852 c 262
EndSplineSet
EndChar

StartChar: exclamdown
Encoding: 161 161 160
Width: 275
VWidth: 1920
Flags: HMW
LayerCount: 2
Fore
SplineSet
250 1050 m 6
 270 1050 l 6
 277 1050 280 1047 278 1040 c 6
 234 850 l 6
 232 843 229 840 222 840 c 6
 202 840 l 6
 195 840 192 843 194 850 c 6
 238 1040 l 6
 240 1047 243 1050 250 1050 c 6
57 100 m 6
 -56 -390 l 6
 -58 -397 -61 -400 -68 -400 c 6
 -78 -400 l 6
 -85 -400 -88 -397 -86 -390 c 6
 27 100 l 6
 29 107 47 193 50 200 c 6
 149 610 l 6
 151 617 154 620 161 620 c 6
 163 620 l 6
 170 620 173 617 171 610 c 6
 78 200 l 6
 76 193 59 107 57 100 c 6
EndSplineSet
EndChar

StartChar: AE
Encoding: 198 198 161
Width: 749
VWidth: 1920
Flags: HMW
LayerCount: 2
Fore
SplineSet
159 465 m 29
 379 465 l 29
 379 435 l 29
 159 435 l 29
 159 465 l 29
616 1400 m 1
 -27 10 l 2
 -32 4 -35 0 -42 0 c 2
 -51 0 l 2
 -58 0 -60 5 -56 10 c 2
 582 1390 l 2
 584 1396 590 1400 597 1400 c 2
 616 1400 l 1
EndSplineSet
Refer: 16 69 N 1 0 0 1 309 0 2
EndChar

StartChar: questiondown
Encoding: 191 191 162
Width: 396
VWidth: 1920
Flags: HMW
LayerCount: 2
Fore
SplineSet
320 1050 m 6
 340 1050 l 6
 347 1050 350 1047 348 1040 c 6
 304 850 l 6
 302 843 299 840 292 840 c 6
 272 840 l 6
 265 840 262 843 264 850 c 6
 308 1040 l 6
 310 1047 313 1050 320 1050 c 6
236 650 m 6
 238 650 l 6
 242 650 244 649 243 646 c 4
 202 465 94 405 16 68 c 262
 -42 -183 l 262
 -65 -283 -69 -387 -11 -387 c 260
 59 -387 94 -271 116 -175 c 262
 177 93 l 6
 178 97 179 98 183 98 c 6
 203 98 l 6
 207 98 208 97 207 93 c 6
 146 -175 l 262
 120 -287 76 -417 -18 -417 c 260
 -106 -417 -98 -295 -73 -185 c 262
 -17 56 l 262
 54 363 195 493 229 646 c 4
 230 649 233 650 236 650 c 6
EndSplineSet
EndChar

StartChar: yen
Encoding: 165 165 163
Width: 372
VWidth: 1920
Flags: HMW
LayerCount: 2
Fore
SplineSet
3 489 m 14
 8 509 l 22
 9 513 10 514 14 514 c 14
 374 514 l 22
 378 514 379 513 378 509 c 14
 373 489 l 22
 372 485 371 484 367 484 c 14
 7 484 l 22
 3 484 2 485 3 489 c 14
32 616 m 14
 37 636 l 22
 38 640 39 641 43 641 c 14
 403 641 l 22
 407 641 408 640 407 636 c 14
 402 616 l 22
 401 612 400 611 396 611 c 14
 36 611 l 22
 32 611 31 612 32 616 c 14
EndSplineSet
Refer: 36 89 N 1 0 0 1 0 0 2
EndChar

StartChar: gravecomb
Encoding: 768 768 164
Width: 0
Flags: HMW
AnchorPoint: "top" -500 1000 mark 0
LayerCount: 2
Fore
SplineSet
-466 1104 m 2
 -476 1104 l 2
 -480 1104 -483 1109 -484 1114 c 2
 -533 1390 l 2
 -534 1395 -535 1400 -531 1400 c 2
 -505 1400 l 2
 -501 1400 -499 1397 -499 1390 c 2
 -462 1114 l 2
 -462 1107 -462 1104 -466 1104 c 2
EndSplineSet
EndChar

StartChar: acutecomb
Encoding: 769 769 165
Width: 0
Flags: HMW
AnchorPoint: "top" -437 1000 mark 0
LayerCount: 2
Fore
SplineSet
-414 1104 m 6
 -418 1104 -418 1107 -414 1114 c 6
 -249 1390 l 6
 -245 1397 -243 1400 -239 1400 c 6
 -213 1400 l 6
 -209 1400 -212 1395 -215 1390 c 6
 -392 1114 l 6
 -395 1109 -400 1104 -404 1104 c 6
 -414 1104 l 6
EndSplineSet
EndChar

StartChar: uni0302
Encoding: 770 770 166
Width: 0
VWidth: 1920
Flags: HMW
AnchorPoint: "top" -446 1000 mark 0
LayerCount: 2
Fore
SplineSet
-361 1371 m 261
 -514 1110 l 6
 -517 1105 -522 1100 -526 1100 c 6
 -538 1100 l 6
 -542 1100 -543 1104 -540 1110 c 6
 -373 1390 l 6
 -368 1398 -369 1400 -365 1400 c 6
 -345 1400 l 6
 -341 1400 -340 1398 -339 1390 c 6
 -298 1110 l 6
 -297 1104 -298 1100 -304 1100 c 6
 -316 1100 l 6
 -321 1100 -323 1105 -324 1110 c 6
 -361 1371 l 261
EndSplineSet
EndChar

StartChar: tildecomb
Encoding: 771 771 167
Width: 0
Flags: HMW
AnchorPoint: "top" -461 1000 mark 0
LayerCount: 2
Fore
SplineSet
-459 1267 m 260
 -510 1267 -525 1190 -535 1157 c 0
 -536 1151 -540 1148 -543 1148 c 2
 -563 1148 l 2
 -567 1148 -566 1151 -565 1157 c 0
 -543 1245 -508 1297 -453 1297 c 256
 -379 1297 -400 1164 -349 1164 c 260
 -298 1164 -282 1241 -273 1273 c 0
 -271 1280 -269 1283 -266 1283 c 2
 -247 1283 l 2
 -243 1283 -242 1280 -244 1273 c 0
 -266 1185 -301 1134 -356 1134 c 256
 -430 1134 -408 1267 -459 1267 c 260
EndSplineSet
EndChar

StartChar: uni0304
Encoding: 772 772 168
Width: 0
VWidth: 1920
Flags: HMW
AnchorPoint: "top" -449 1000 mark 0
LayerCount: 2
Fore
SplineSet
-545 1171 m 14
 -540 1191 l 22
 -539 1195 -538 1196 -534 1196 c 14
 -274 1196 l 22
 -270 1196 -269 1195 -270 1191 c 14
 -275 1171 l 22
 -276 1167 -277 1166 -281 1166 c 14
 -541 1166 l 22
 -545 1166 -546 1167 -545 1171 c 14
EndSplineSet
EndChar

StartChar: uni0306
Encoding: 774 774 169
Width: 0
VWidth: 1920
Flags: HMW
AnchorPoint: "top" -449 1000 mark 0
LayerCount: 2
Fore
SplineSet
-410 1171 m 4
 -355 1171 -308 1203 -293 1267 c 4
 -292 1271 -292 1272 -288 1272 c 6
 -266 1272 l 6
 -262 1272 -262 1271 -263 1265 c 4
 -283 1194 -325 1141 -417 1141 c 4
 -509 1141 -526 1195 -512 1267 c 4
 -511 1271 -510 1272 -506 1272 c 6
 -484 1272 l 6
 -480 1272 -481 1271 -482 1266 c 4
 -497 1201 -464 1171 -410 1171 c 4
EndSplineSet
EndChar

StartChar: uni0307
Encoding: 775 775 170
Width: 0
Flags: HMW
AnchorPoint: "top" -437 1000 mark 0
LayerCount: 2
Fore
SplineSet
-373 1164 m 6
 -429 1164 l 6
 -431 1164 -433 1164 -433 1166 c 6
 -419 1224 l 6
 -419 1226 -417 1226 -415 1226 c 6
 -359 1226 l 6
 -357 1226 -355 1226 -355 1224 c 6
 -369 1166 l 6
 -369 1164 -371 1164 -373 1164 c 6
EndSplineSet
EndChar

StartChar: uni0308
Encoding: 776 776 171
Width: 0
Flags: HMW
AnchorPoint: "top" -437 1000 mark 0
LayerCount: 2
Fore
SplineSet
-443 1164 m 6
 -500 1164 l 6
 -502 1164 -503 1164 -503 1166 c 6
 -489 1224 l 6
 -489 1226 -488 1226 -486 1226 c 6
 -429 1226 l 6
 -427 1226 -426 1226 -426 1224 c 6
 -440 1166 l 6
 -440 1164 -441 1164 -443 1164 c 6
-298 1164 m 6
 -355 1164 l 6
 -357 1164 -358 1164 -358 1166 c 6
 -344 1224 l 6
 -344 1226 -343 1226 -341 1226 c 6
 -284 1226 l 6
 -282 1226 -281 1226 -281 1224 c 6
 -295 1166 l 6
 -295 1164 -296 1164 -298 1164 c 6
EndSplineSet
EndChar

StartChar: uni030A
Encoding: 778 778 172
Width: 0
Flags: HMW
AnchorPoint: "top" -604 1000 mark 0
LayerCount: 2
Fore
SplineSet
-458 1212 m 0
 -458 1160 -502 1117 -554 1117 c 0
 -607 1117 -652 1159 -652 1212 c 0
 -652 1263 -607 1307 -554 1307 c 0
 -501 1307 -458 1266 -458 1212 c 0
-488 1212 m 0
 -488 1250 -517 1277 -554 1277 c 0
 -591 1277 -622 1247 -622 1212 c 0
 -622 1175 -591 1147 -554 1147 c 0
 -518 1147 -488 1177 -488 1212 c 0
EndSplineSet
EndChar

StartChar: uni030B
Encoding: 779 779 173
Width: 0
Flags: HMW
AnchorPoint: "top" -431 1000 mark 0
LayerCount: 2
Fore
SplineSet
-344 1104 m 6
 -348 1104 -348 1107 -344 1114 c 6
 -179 1390 l 6
 -175 1397 -173 1400 -169 1400 c 6
 -143 1400 l 6
 -139 1400 -142 1395 -145 1390 c 6
 -322 1114 l 6
 -325 1109 -330 1104 -334 1104 c 6
 -344 1104 l 6
-474 1104 m 6
 -478 1104 -478 1107 -474 1114 c 6
 -309 1390 l 6
 -305 1397 -303 1400 -299 1400 c 6
 -273 1400 l 6
 -269 1400 -272 1395 -275 1390 c 6
 -452 1114 l 6
 -455 1109 -460 1104 -464 1104 c 6
 -474 1104 l 6
EndSplineSet
EndChar

StartChar: uni030C
Encoding: 780 780 174
Width: 0
Flags: HMW
AnchorPoint: "top" -443 1000 mark 0
LayerCount: 2
Fore
SplineSet
-407 1149 m 257
 -254 1410 l 2
 -251 1415 -246 1420 -242 1420 c 2
 -230 1420 l 2
 -226 1420 -225 1416 -228 1410 c 2
 -395 1130 l 2
 -400 1122 -399 1120 -403 1120 c 2
 -423 1120 l 2
 -427 1120 -428 1122 -429 1130 c 2
 -470 1410 l 2
 -471 1416 -470 1420 -464 1420 c 2
 -452 1420 l 2
 -447 1420 -445 1415 -444 1410 c 2
 -407 1149 l 257
EndSplineSet
EndChar

StartChar: uni030F
Encoding: 783 783 175
Width: 0
Flags: HMW
AnchorPoint: "top" -460 1000 mark 0
LayerCount: 2
Fore
SplineSet
-356 1104 m 2
 -366 1104 l 2
 -370 1104 -373 1109 -374 1114 c 2
 -423 1390 l 2
 -424 1395 -425 1400 -421 1400 c 2
 -395 1400 l 2
 -391 1400 -389 1397 -389 1390 c 2
 -352 1114 l 2
 -352 1107 -352 1104 -356 1104 c 2
-486 1104 m 2
 -496 1104 l 2
 -500 1104 -503 1109 -504 1114 c 2
 -553 1390 l 2
 -554 1395 -555 1400 -551 1400 c 2
 -525 1400 l 2
 -521 1400 -519 1397 -519 1390 c 2
 -482 1114 l 2
 -482 1107 -482 1104 -486 1104 c 2
EndSplineSet
EndChar

StartChar: uni0311
Encoding: 785 785 176
Width: 0
Flags: HMW
AnchorPoint: "top" -458 1152 mark 0
LayerCount: 2
Fore
SplineSet
-415 1339 m 4
 -470 1339 -516 1307 -531 1243 c 4
 -532 1239 -532 1238 -536 1238 c 6
 -558 1238 l 6
 -562 1238 -563 1239 -562 1245 c 4
 -542 1316 -500 1369 -408 1369 c 4
 -316 1369 -298 1315 -312 1243 c 4
 -313 1239 -314 1238 -318 1238 c 6
 -340 1238 l 6
 -344 1238 -344 1239 -343 1244 c 4
 -328 1309 -361 1339 -415 1339 c 4
EndSplineSet
EndChar

StartChar: dotbelowcomb
Encoding: 803 803 177
Width: 0
Flags: HMW
AnchorPoint: "bottom" -671 0 mark 0
LayerCount: 2
Fore
SplineSet
-708 -286 m 6
 -764 -286 l 6
 -766 -286 -768 -286 -768 -284 c 6
 -754 -226 l 6
 -754 -224 -752 -224 -750 -224 c 6
 -694 -224 l 6
 -692 -224 -690 -224 -690 -226 c 6
 -704 -284 l 6
 -704 -286 -706 -286 -708 -286 c 6
EndSplineSet
EndChar

StartChar: uni0326
Encoding: 806 806 178
Width: 0
Flags: HMW
AnchorPoint: "bottom" -681 0 mark 0
LayerCount: 2
Fore
SplineSet
-803 -373 m 6
 -812 -373 l 6
 -814 -373 -814 -372 -813 -370 c 6
 -768 -310 l 261
 -789 -310 l 6
 -792 -310 -792 -310 -791 -307 c 6
 -778 -250 l 6
 -778 -248 -776 -247 -774 -247 c 6
 -717 -247 l 6
 -715 -247 -715 -248 -715 -250 c 6
 -727 -304 l 6
 -727 -306 -729 -307 -732 -310 c 6
 -797 -370 l 6
 -799 -372 -801 -373 -803 -373 c 6
EndSplineSet
EndChar

StartChar: uni0327
Encoding: 807 807 179
Width: 1200
Flags: HMW
AnchorPoint: "bottom" -631 0 mark 0
LayerCount: 2
Fore
SplineSet
-834 -450 m 0
 -864 -450 -891 -443 -913 -426 c 0
 -917 -423 -917 -418 -913 -414 c 2
 -901 -403 l 2
 -897 -399 -896 -398 -891 -400 c 0
 -868 -414 -852 -421 -827 -421 c 0
 -800 -421 -753 -412 -733 -326 c 0
 -714 -243 -746 -220 -810 -220 c 0
 -817 -220 -816 -220 -817 -215 c 2
 -818 -208 l 2
 -819 -203 -817 -201 -814 -198 c 2
 -629 10 l 1
 -600 10 l 5
 -795 -206 l 1
 -787 -204 -771 -204 -763 -204 c 0
 -720 -204 -682 -236 -703 -326 c 0
 -725 -420 -777 -450 -834 -450 c 0
EndSplineSet
EndChar

StartChar: uni0328
Encoding: 808 808 180
Width: 1200
Flags: HMW
AnchorPoint: "ogonek" -656 0 mark 0
LayerCount: 2
Fore
SplineSet
-736 -348 m 2
 -741 -368 l 2
 -742 -372 -744 -372 -748 -372 c 2
 -788 -372 l 2
 -882 -372 -924 -311 -901 -212 c 0
 -878 -113 -778 -72 -638 13 c 5
 -632 0 l 1
 -740 -71 -850 -120 -871 -212 c 0
 -890 -293 -855 -342 -775 -342 c 2
 -741 -342 l 2
 -737 -342 -735 -344 -736 -348 c 2
EndSplineSet
EndChar

StartChar: uni0312
Encoding: 786 786 181
Width: 0
Flags: HMW
AnchorPoint: "top" -505 950 mark 0
LayerCount: 2
Fore
SplineSet
-357 1430 m 2
 -355 1430 l 2
 -348 1430 -347 1428 -351 1420 c 2
 -435 1220 l 257
 -429 1220 l 2
 -420 1220 -420 1219 -422 1210 c 2
 -466 1020 l 2
 -468 1013 -471 1010 -478 1010 c 2
 -498 1010 l 2
 -505 1010 -508 1013 -506 1020 c 2
 -464 1200 l 2
 -462 1207 -461 1213 -457 1220 c 2
 -369 1420 l 2
 -365 1429 -363 1430 -357 1430 c 2
EndSplineSet
EndChar

StartChar: sterling
Encoding: 163 163 182
Width: 470
VWidth: 1920
Flags: HMW
LayerCount: 2
Fore
SplineSet
104 689 m 14
 109 710 l 22
 110 714 111 715 115 715 c 14
 355 715 l 22
 359 715 360 714 359 710 c 14
 354 689 l 22
 353 685 352 685 348 685 c 14
 108 685 l 22
 104 685 103 685 104 689 c 14
-31 29 m 4
 40 87 168 362 222 597 c 4
 268 796 199 907 253 1141 c 4
 291 1306 331 1417 445 1417 c 4
 562 1417 541 1285 468 967 c 4
 467 963 466 963 462 963 c 6
 440 963 l 6
 437 963 435 963 436 967 c 4
 490 1210 535 1387 438 1387 c 4
 351 1387 316 1281 286 1151 c 4
 232 915 301 810 252 597 c 4
 201 376 65 73 -4 30 c 5
 302 30 l 6
 306 30 307 28 306 24 c 6
 301 5 l 6
 300 1 299 0 295 0 c 6
 -35 0 l 6
 -39 0 -40 1 -39 5 c 6
 -34 24 l 6
 -34 26 -33 27 -31 29 c 4
EndSplineSet
EndChar

StartChar: currency
Encoding: 164 164 183
Width: 1112
Flags: HMW
LayerCount: 2
Fore
SplineSet
866 941 m 14
 877 927 l 22
 879 925 877 922 875 920 c 14
 800 858 l 22
 798 856 795 856 793 858 c 14
 782 872 l 22
 780 874 782 878 784 880 c 14
 859 941 l 22
 861 943 864 943 866 941 c 14
394 557 m 14
 404 543 l 22
 406 541 405 537 403 535 c 14
 327 474 l 22
 325 472 322 472 320 474 c 14
 310 488 l 22
 308 490 309 493 311 495 c 14
 387 557 l 22
 389 559 392 559 394 557 c 14
411 927 m 14
 428 941 l 22
 430 943 433 943 435 941 c 14
 482 880 l 22
 484 878 482 874 480 872 c 14
 463 858 l 22
 461 856 458 856 456 858 c 14
 409 920 l 22
 407 922 409 925 411 927 c 14
706 543 m 14
 724 557 l 22
 726 559 729 559 731 557 c 14
 777 495 l 22
 779 493 778 490 776 488 c 14
 758 474 l 22
 756 472 753 472 751 474 c 14
 705 535 l 22
 703 537 704 541 706 543 c 14
350 709 m 4
 381 843 518 954 652 954 c 4
 786 954 871 843 840 709 c 4
 809 575 673 464 539 464 c 4
 405 464 319 575 350 709 c 4
380 709 m 4
 354 595 422 494 546 494 c 4
 670 494 784 595 810 709 c 4
 836 823 769 924 645 924 c 4
 521 924 406 823 380 709 c 4
EndSplineSet
EndChar

StartChar: brokenbar
Encoding: 166 166 184
Width: 365
VWidth: 1920
Flags: HMW
LayerCount: 2
Fore
SplineSet
152 430 m 14
 172 430 l 22
 176 430 177 427 175 420 c 14
 -3 -350 l 22
 -5 -357 -6 -360 -10 -360 c 14
 -30 -360 l 22
 -34 -360 -35 -357 -33 -350 c 14
 145 420 l 22
 147 427 148 430 152 430 c 14
422 1600 m 14
 442 1600 l 22
 446 1600 447 1597 445 1590 c 14
 267 820 l 22
 265 813 264 810 260 810 c 14
 240 810 l 22
 236 810 235 813 237 820 c 14
 415 1590 l 22
 417 1597 418 1600 422 1600 c 14
EndSplineSet
EndChar

StartChar: section
Encoding: 167 167 185
Width: 568
VWidth: 1920
Flags: HMW
LayerCount: 2
Fore
SplineSet
339 890 m 261
 267 890 178 776 137 598 c 260
 98 431 127 344 194 241 c 260
 283 105 301 47 269 -93 c 260
 229 -265 158 -370 64 -370 c 260
 -33 -370 -42 -267 -1 -57 c 4
 0 -51 3 -48 7 -48 c 6
 28 -48 l 6
 32 -48 33 -51 31 -58 c 4
 -4 -238 -1 -340 71 -340 c 260
 145 -340 204 -243 239 -93 c 260
 271 45 232 121 171 212 c 260
 80 347 75 456 107 593 c 260
 154 795 246 900 348 900 c 261
 339 890 l 261
227 145 m 261
 299 145 389 259 430 437 c 260
 469 604 440 691 373 794 c 260
 284 930 266 988 298 1128 c 260
 338 1300 409 1405 503 1405 c 260
 600 1405 609 1302 568 1092 c 4
 567 1086 564 1083 560 1083 c 6
 539 1083 l 6
 535 1083 534 1086 536 1093 c 4
 571 1273 568 1375 496 1375 c 260
 422 1375 363 1278 328 1128 c 260
 296 990 335 914 396 823 c 260
 487 688 492 579 460 442 c 260
 413 240 321 135 219 135 c 261
 227 145 l 261
EndSplineSet
EndChar

StartChar: copyright
Encoding: 169 169 186
Width: 844
Flags: HMW
LayerCount: 2
Fore
SplineSet
533 612 m 260
 466 323 447 247 351 247 c 260
 268 247 283 327 315 465 c 262
 410 875 l 262
 445 1025 481 1093 555 1093 c 260
 638 1093 616 983 567 770 c 260
 567 768 565 767 563 767 c 262
 551 767 l 262
 549 767 549 768 549 770 c 260
 598 988 610 1075 551 1075 c 260
 480 1075 456 995 429 878 c 262
 333 462 l 262
 307 351 288 265 355 265 c 260
 431 265 452 332 515 612 c 260
 515 614 517 615 519 615 c 262
 531 615 l 262
 533 615 533 614 533 612 c 260
803 668 m 4
 714 284 609 -28 295 -28 c 4
 -19 -28 20 284 109 668 c 4
 198 1052 302 1366 616 1366 c 4
 930 1366 892 1052 803 668 c 4
773 668 m 4
 851 1006 917 1336 609 1336 c 4
 301 1336 217 1006 139 668 c 4
 61 330 -7 2 301 2 c 4
 609 2 695 330 773 668 c 4
EndSplineSet
EndChar

StartChar: registered
Encoding: 174 174 188
Width: 844
Flags: HMW
LayerCount: 2
Fore
SplineSet
499 1102 m 261
 409 712 l 261
 448 712 l 262
 487 712 528 747 546 825 c 262
 582 977 l 262
 599 1049 601 1102 538 1102 c 262
 499 1102 l 261
543 1120 m 262
 617 1120 622 1073 598 971 c 262
 567 837 l 262
 542 729 487 703 446 703 c 261
 447 706 l 261
 488 706 530 689 513 617 c 262
 468 420 l 262
 452 349 454 318 463 298 c 4
 464 294 464 294 464 292 c 6
 462 283 l 6
 462 281 461 280 459 280 c 6
 451 280 l 6
 449 280 448 280 446 282 c 4
 435 306 430 334 450 420 c 262
 498 626 l 262
 508 668 490 697 445 697 c 262
 406 697 l 261
 310 283 l 6
 310 281 309 280 307 280 c 6
 295 280 l 6
 293 280 292 281 292 283 c 6
 485 1117 l 6
 485 1119 487 1120 489 1120 c 6
 543 1120 l 262
803 668 m 4
 714 284 609 -28 295 -28 c 4
 -19 -28 20 284 109 668 c 4
 198 1052 302 1366 616 1366 c 4
 930 1366 892 1052 803 668 c 4
773 668 m 4
 851 1006 917 1336 609 1336 c 4
 301 1336 217 1006 139 668 c 4
 61 330 -7 2 301 2 c 4
 609 2 695 330 773 668 c 4
EndSplineSet
EndChar

StartChar: dotlessi
Encoding: 305 305 279
Width: 168
VWidth: 1104
Flags: HMW
AnchorPoint: "top" 206.411 1050 basechar 0
LayerCount: 2
Fore
SplineSet
220 1044 m 6
 -20 6 l 6
 -21 2 -22 0 -26 0 c 6
 -45 0 l 6
 -49 0 -51 2 -50 6 c 6
 190 1044 l 6
 191 1048 193 1050 197 1050 c 6
 216 1050 l 6
 220 1050 221 1048 220 1044 c 6
EndSplineSet
EndChar

StartChar: uni0237
Encoding: 567 567 291
Width: 168
VWidth: 1104
Flags: HMW
AnchorPoint: "top" 207 1050 basechar 0
LayerCount: 2
Fore
SplineSet
-34 -59 m 6
 -83 -271 -123 -371 -172 -371 c 4
 -241 -371 -182 -199 -142 -107 c 4
 -140 -102 -138 -99 -133 -100 c 6
 -127 -101 l 6
 -124 -102 -124 -103 -126 -107 c 4
 -165 -199 -210 -345 -170 -345 c 4
 -137 -345 -109 -255 -64 -60 c 6
 190 1040 l 6
 192 1047 195 1050 202 1050 c 6
 212 1050 l 6
 219 1050 222 1047 220 1040 c 6
 -34 -59 l 6
EndSplineSet
EndChar

StartChar: kgreenlandic
Encoding: 312 312 298
Width: 298
VWidth: 1104
Flags: HMW
LayerCount: 2
Fore
SplineSet
198 1050 m 6
 216 1050 l 6
 220 1050 222 1048 221 1044 c 6
 -19 6 l 2
 -20 2 -22 0 -26 0 c 2
 -44 0 l 2
 -48 0 -50 2 -49 6 c 2
 191 1044 l 6
 192 1048 194 1050 198 1050 c 6
58 412 m 1
 355 1044 l 2
 358 1049 362 1050 366 1050 c 2
 380 1050 l 2
 384 1050 387 1049 383 1044 c 2
 55 367 l 1
 58 412 l 1
178 661 m 1
 203 709 l 1
 151 6 l 2
 152 2 152 1 148 0 c 2
 128 0 l 2
 123 0 120 2 120 6 c 2
 178 661 l 1
EndSplineSet
EndChar

StartChar: grave
Encoding: 96 96 339
Width: 311
VWidth: 0
Flags: HMW
LayerCount: 2
Fore
SplineSet
343 1104 m 2
 333 1104 l 2
 329 1104 326 1109 325 1114 c 2
 276 1390 l 2
 275 1395 274 1400 278 1400 c 2
 304 1400 l 2
 308 1400 310 1397 310 1390 c 2
 347 1114 l 2
 347 1107 347 1104 343 1104 c 2
EndSplineSet
EndChar

StartChar: longs
Encoding: 383 383 352
Width: 217
VWidth: 1104
Flags: HMW
LayerCount: 2
Fore
SplineSet
277 1315 m 6
 304 1434 320 1476 420 1461 c 4
 426 1460 427 1458 426 1454 c 6
 423 1442 l 6
 422 1438 419 1436 412 1437 c 4
 336 1448 327 1398 308 1315 c 6
 -78 -354 l 6
 -79 -358 -82 -360 -86 -360 c 6
 -104 -360 l 6
 -108 -360 -110 -358 -109 -354 c 6
 277 1315 l 6
EndSplineSet
EndChar

StartChar: uni0259
Encoding: 601 601 359
Width: 336
VWidth: 1104
Flags: HMW
LayerCount: 2
Fore
SplineSet
100 652 m 4
 174 940 206 1060 294 1060 c 4
 367 1060 381 970 340 792 c 6
 216 257 l 6
 176 85 122 -10 46 -10 c 4
 -26 -10 -27 71 2 226 c 4
 25 352 43 422 72 548 c 4
 72 550 74 553 78 553 c 6
 268 553 l 5
 262 527 l 5
 94 527 l 5
 -7 80 -2 17 52 17 c 4
 108 17 154 115 184 245 c 6
 313 805 l 6
 344 939 342 1033 286 1033 c 4
 227 1033 194 935 120 650 c 4
 120 648 116 647 112 647 c 6
 102 647 l 6
 98 647 99 649 100 652 c 4
EndSplineSet
EndChar

StartChar: logicalnot
Encoding: 172 172 373
Width: 600
VWidth: 2048
Flags: HMW
LayerCount: 2
Fore
SplineSet
111 675 m 6
 113 685 l 6
 115 692 116 695 120 695 c 6
 520 695 l 6
 524 695 525 692 523 685 c 6
 440 325 l 6
 438 318 437 315 433 315 c 6
 413 315 l 6
 409 315 408 318 410 325 c 6
 489 665 l 5
 114 665 l 6
 110 665 109 668 111 675 c 6
EndSplineSet
EndChar

StartChar: acute
Encoding: 180 180 374
Width: 311
VWidth: 0
Flags: HMW
LayerCount: 2
Fore
SplineSet
212 1104 m 6
 208 1104 208 1107 212 1114 c 6
 377 1390 l 6
 381 1397 383 1400 387 1400 c 6
 413 1400 l 6
 417 1400 414 1395 411 1390 c 6
 234 1114 l 6
 231 1109 226 1104 222 1104 c 6
 212 1104 l 6
EndSplineSet
EndChar

StartChar: degree
Encoding: 176 176 376
Width: 440
VWidth: 2048
Flags: HMW
LayerCount: 2
Fore
SplineSet
217 1241 m 262
 220 1258 l 262
 242 1353 337 1417 425 1417 c 260
 513 1417 582 1353 560 1258 c 262
 557 1241 l 262
 535 1146 436 1081 348 1081 c 260
 260 1081 195 1146 217 1241 c 262
245 1235 m 262
 229 1165 276 1111 354 1111 c 260
 432 1111 509 1165 525 1235 c 262
 532 1263 l 262
 548 1333 496 1387 418 1387 c 260
 340 1387 268 1333 252 1263 c 262
 245 1235 l 262
EndSplineSet
EndChar

StartChar: plusminus
Encoding: 177 177 377
Width: 576
Flags: HMW
LayerCount: 2
Fore
SplineSet
56 546 m 14
 60 565 l 22
 61 569 64 570 68 570 c 14
 532 570 l 22
 536 570 537 569 536 565 c 14
 532 546 l 22
 531 542 529 540 525 540 c 14
 61 540 l 22
 57 540 55 542 56 546 c 14
146 935 m 14
 151 956 l 22
 152 960 154 960 158 960 c 14
 622 960 l 22
 626 960 628 960 627 956 c 14
 622 935 l 22
 621 931 619 930 615 930 c 14
 151 930 l 22
 147 930 145 931 146 935 c 14
431 1168 m 14
 455 1168 l 22
 459 1168 460 1166 459 1162 c 14
 355 712 l 22
 354 708 352 708 348 708 c 14
 324 708 l 22
 320 708 318 708 319 712 c 14
 423 1162 l 22
 424 1166 427 1168 431 1168 c 14
EndSplineSet
EndChar

StartChar: ae
Encoding: 230 230 379
Width: 497
VWidth: 1104
Flags: HMW
LayerCount: 2
Fore
SplineSet
31 288 m 0
 -23 56 -4 23 35 23 c 0
 75 23 125 86 172 288 c 1
 179 264 l 1
 129 46 77 -5 21 -5 c 0
 -21 -5 -61 19 0 282 c 0
 43 467 98 526 167 594 c 0
 215 641 263 679 286 780 c 1
 294 766 l 1
 266 644 217 610 179 571 c 0
 117 508 67 445 31 288 c 0
145 170 m 9
 317 915 l 2
 336 997 323 1023 295 1023 c 0
 248 1023 209 975 146 722 c 0
 145 719 143 716 139 716 c 2
 122 716 l 2
 118 716 117 719 118 722 c 0
 186 993 233 1055 305 1055 c 0
 353 1055 359 1011 335 907 c 2
 165 170 l 17
 145 170 l 9
406 398 m 4
 332 110 300 -10 212 -10 c 4
 139 -10 135 80 176 258 c 6
 299 793 l 6
 339 965 384 1060 460 1060 c 4
 532 1060 532 979 503 824 c 4
 480 698 463 628 434 502 c 4
 434 500 432 497 428 497 c 6
 238 497 l 5
 244 523 l 5
 412 523 l 5
 513 970 507 1033 453 1033 c 4
 397 1033 352 935 322 805 c 6
 193 245 l 6
 162 111 163 17 219 17 c 4
 278 17 311 115 385 400 c 4
 385 402 389 403 393 403 c 6
 403 403 l 6
 407 403 407 401 406 398 c 4
EndSplineSet
EndChar

StartChar: paragraph
Encoding: 182 182 380
Width: 492
VWidth: 1920
Flags: HMW
LayerCount: 2
Fore
SplineSet
578 1370 m 5
 181 -350 l 6
 179 -357 178 -360 174 -360 c 6
 154 -360 l 6
 150 -360 149 -357 151 -350 c 6
 548 1370 l 5
 478 1370 l 5
 81 -350 l 6
 79 -357 78 -360 74 -360 c 6
 54 -360 l 6
 50 -360 49 -357 51 -350 c 6
 271 600 l 5
 266 600 l 6
 162 600 91 698 153 968 c 6
 168 1032 l 6
 230 1302 346 1400 450 1400 c 6
 630 1400 l 6
 632 1400 635 1397 633 1390 c 6
 631 1380 l 6
 629 1373 627 1370 623 1370 c 6
 578 1370 l 5
EndSplineSet
EndChar

StartChar: guilsinglleft
Encoding: 8249 8249 381
Width: 630
Flags: HMW
LayerCount: 2
Fore
SplineSet
401 266 m 6
 172 529 l 6
 166 533 164 538 166 545 c 6
 173 575 l 6
 175 582 178 587 186 591 c 6
 530 824 l 6
 538 828 541 827 539 820 c 6
 535 800 l 6
 533 793 530 788 521 784 c 6
 188 560 l 261
 411 306 l 6
 418 302 419 297 417 290 c 6
 412 270 l 6
 410 263 407 262 401 266 c 6
EndSplineSet
EndChar

StartChar: guilsinglright
Encoding: 8250 8250 382
Width: 630
Flags: HW
LayerCount: 2
Fore
SplineSet
244 839 m 2
 473 576 l 2
 479 572 481 567 479 560 c 2
 472 530 l 2
 470 523 467 518 459 514 c 2
 115 281 l 2
 107 277 104 278 106 285 c 2
 110 305 l 2
 112 312 115 317 124 321 c 2
 457 545 l 257
 234 799 l 2
 227 803 226 808 228 815 c 2
 233 835 l 2
 235 842 238 843 244 839 c 2
EndSplineSet
EndChar

StartChar: mu
Encoding: 181 181 385
Width: 336
VWidth: 1104
Flags: HW
LayerCount: 2
Fore
SplineSet
204 1050 m 6
 213 1050 l 6
 220 1050 223 1047 221 1040 c 6
 -100 -350 l 6
 -102 -357 -105 -360 -112 -360 c 6
 -121 -360 l 6
 -128 -360 -131 -357 -129 -350 c 6
 192 1040 l 6
 194 1047 197 1050 204 1050 c 6
140 0 m 6
 124 0 l 6
 120 0 119 2 120 6 c 6
 153 148 l 5
 154 164 l 5
 357 1044 l 6
 358 1048 361 1050 365 1050 c 6
 382 1050 l 6
 386 1050 389 1048 388 1044 c 6
 148 6 l 6
 147 2 144 0 140 0 c 6
173 211 m 5
 143 83 89 -10 37 -10 c 4
 -22 -10 -17 49 11 169 c 6
 208 1024 l 6
 209 1028 209 1040 213 1040 c 6
 216 1040 l 6
 220 1040 218 1028 217 1024 c 6
 20 169 l 6
 1 87 -9 17 41 17 c 4
 89 17 145 124 173 245 c 5
 173 211 l 5
EndSplineSet
EndChar

StartChar: Eth
Encoding: 208 208 387
Width: 364
VWidth: 1920
Flags: HW
LayerCount: 2
Fore
SplineSet
-7.5732421875 709 m 14
 -3.5732421875 729 l 22
 -2.5732421875 733 -2.5732421875 734 1.4267578125 734 c 14
 267.426757812 734 l 22
 271.426757812 734 271.426757812 733 270.426757812 729 c 14
 266.426757812 709 l 22
 265.426757812 705 265.426757812 704 261.426757812 704 c 14
 -4.5732421875 704 l 22
 -8.5732421875 704 -8.5732421875 705 -7.5732421875 709 c 14
EndSplineSet
Refer: 15 68 N 1 0 0 1 0 0 2
EndChar

StartChar: Dcroat
Encoding: 272 272 388
Width: 364
VWidth: 1920
Flags: HW
LayerCount: 2
Fore
SplineSet
-7.5732421875 709 m 14
 -3.5732421875 729 l 22
 -2.5732421875 733 -2.5732421875 734 1.4267578125 734 c 14
 267.426757812 734 l 22
 271.426757812 734 271.426757812 733 270.426757812 729 c 14
 266.426757812 709 l 22
 265.426757812 705 265.426757812 704 261.426757812 704 c 14
 -4.5732421875 704 l 22
 -8.5732421875 704 -8.5732421875 705 -7.5732421875 709 c 14
EndSplineSet
Refer: 15 68 N 1 0 0 1 0 0 2
EndChar

StartChar: thorn
Encoding: 254 254 389
Width: 344
VWidth: 1104
Flags: HW
LayerCount: 2
Fore
SplineSet
291 1450 m 6
 310 1450 l 2
 314 1450 315 1448 314 1444 c 2
 -109 -388 l 2
 -110 -392 -113 -394 -117 -394 c 2
 -134 -394 l 2
 -138 -394 -141 -392 -140 -388 c 2
 283 1444 l 2
 284 1448 287 1450 291 1450 c 6
163 829 m 1
 200 990 247 1070 318 1070 c 0
 369 1070 407 1029 365 845 c 2
 222 224 l 2
 185 62 133 -10 67 -10 c 0
 0 -10 -11 81 26 242 c 1
 38 245 l 1
 10 124 18 19 71 19 c 0
 121 19 161 109 185 212 c 2
 334 859 l 2
 363 985 349 1041 299 1041 c 0
 248 1041 200 947 172 826 c 1
 163 829 l 1
EndSplineSet
EndChar

StartChar: Thorn
Encoding: 222 222 390
Width: 440
VWidth: 1920
Flags: HW
LayerCount: 2
Fore
SplineSet
336 1110 m 2
 453 1110 474 1062 432 882 c 6
 371 618 l 6
 332 448 289 400 172 400 c 2
 127 400 l 1
 37 10 l 2
 35 3 32 0 25 0 c 2
 15 0 l 2
 8 0 5 3 7 10 c 2
 326 1390 l 2
 328 1397 331 1400 338 1400 c 2
 348 1400 l 2
 355 1400 358 1397 356 1390 c 2
 291 1110 l 1
 336 1110 l 2
134 430 m 1
 179 430 l 6
 266 430 303 458 338 608 c 6
 404 892 l 6
 439 1042 416 1080 329 1080 c 6
 284 1080 l 1
 134 430 l 1
EndSplineSet
EndChar

StartChar: divide
Encoding: 247 247 391
Width: 600
VWidth: 2048
Flags: HW
LayerCount: 2
Fore
SplineSet
88 684 m 10
 93 704 l 18
 94 708 95 709 99 709 c 10
 589 709 l 18
 593 709 594 708 593 704 c 10
 588 684 l 18
 587 680 586 679 582 679 c 10
 92 679 l 18
 88 679 87 680 88 684 c 10
EndSplineSet
Refer: 1 46 S 1 0 0 1 374 930 2
Refer: 1 46 S 1 0 0 1 216 240 2
EndChar

StartChar: multiply
Encoding: 215 215 392
Width: 580
VWidth: 1920
Flags: HW
LayerCount: 2
Fore
SplineSet
471 550 m 14
 456 539 l 22
 454 537 452 537 450 539 c 14
 196 868 l 22
 194 870 196 873 198 875 c 14
 213 886 l 22
 215 888 217 888 219 886 c 14
 473 557 l 22
 475 555 473 552 471 550 c 14
132 539 m 10
 123 550 l 18
 121 552 123 555 125 557 c 10
 531 886 l 18
 533 888 535 888 537 886 c 10
 546 875 l 18
 548 873 546 870 544 868 c 10
 138 539 l 18
 136 537 134 537 132 539 c 10
EndSplineSet
EndChar

StartChar: Oslash
Encoding: 216 216 393
Width: 370
VWidth: 1920
Flags: HW
LayerCount: 2
Fore
SplineSet
513.958984375 1478 m 6
 529.958984375 1474 l 6
 531.958984375 1473 531.958984375 1470 530.958984375 1467 c 6
 -45.041015625 -73 l 6
 -46.041015625 -76 -49.041015625 -76 -52.041015625 -75 c 6
 -68.041015625 -71 l 6
 -71.041015625 -70 -70.041015625 -67 -69.041015625 -64 c 6
 506.958984375 1476 l 6
 507.958984375 1479 509.958984375 1479 513.958984375 1478 c 6
EndSplineSet
Refer: 26 79 N 1 0 0 1 0 0 2
EndChar

StartChar: oslash
Encoding: 248 248 394
Width: 306
VWidth: 1920
Flags: HW
LayerCount: 2
Fore
SplineSet
373.907226562 1196 m 6
 391.907226562 1194 l 6
 393.907226562 1194 392.907226562 1190 391.907226562 1187 c 6
 -19.0927734375 -73 l 6
 -20.0927734375 -76 -24.0927734375 -75 -27.0927734375 -75 c 6
 -43.0927734375 -73 l 6
 -46.0927734375 -73 -44.0927734375 -69 -43.0927734375 -66 c 6
 367.907226562 1194 l 6
 367.907226562 1196 369.907226562 1197 373.907226562 1196 c 6
EndSplineSet
Refer: 52 111 N 1 0 0 1 0 0 2
EndChar

StartChar: germandbls
Encoding: 223 223 396
Width: 453
VWidth: 1920
Flags: HW
LayerCount: 2
Fore
SplineSet
259 1188 m 2
 299 1362 339 1487 414 1487 c 0
 506 1487 493 1372 454 1205 c 0
 409 1008 362 935 334 815 c 0
 277 566 381 563 321 302 c 0
 272 90 215 -5 105 -5 c 0
 101 -5 101 -4 103 5 c 2
 106 18 l 2
 108 27 108 28 112 28 c 0
 194 29 250 124 291 302 c 0
 347 545 241 544 304 815 c 0
 337 957 382 1025 424 1205 c 4
 450 1316 477 1457 412 1457 c 4
 357 1457 317 1301 286 1168 c 6
 18 10 l 6
 16 3 14 0 10 0 c 2
 -10 0 l 2
 -14 0 -15 3 -13 10 c 2
 259 1188 l 2
EndSplineSet
EndChar

StartChar: eth
Encoding: 240 240 397
Width: 372
VWidth: 1920
Flags: HW
LayerCount: 2
Fore
SplineSet
306 1242 m 14
 300 1257 l 18
 299 1260 302 1261 305 1263 c 10
 525 1388 l 18
 528 1390 531 1389 532 1386 c 10
 538 1372 l 22
 539 1369 536 1368 533 1366 c 14
 311 1240 l 22
 308 1238 307 1239 306 1242 c 14
278 1025 m 256
 213 1025 176 909 149 793 c 258
 23 249 l 258
 -6 124 -13 25 67 25 c 256
 155 25 189 132 213 237 c 258
 360 873 l 258
 444 1236 452 1380 306 1441 c 0
 301 1443 301 1445 304 1449 c 2
 318 1471 l 2
 321 1475 321 1476 327 1474 c 0
 498 1403 466 1203 411 965 c 258
 250 269 l 258
 215 119 178 -5 60 -5 c 256
 -36 -5 -43 90 -11 229 c 258
 122 807 l 258
 154 944 199 1055 277 1055 c 256
 365 1055 384 952 362 855 c 257
 335 767 l 257
 348 825 l 258
 369 917 343 1025 278 1025 c 256
EndSplineSet
EndChar

StartChar: dcroat
Encoding: 273 273 398
Width: 304
VWidth: 1920
Flags: HW
LayerCount: 2
Fore
SplineSet
296.342773438 1246 m 14
 300.342773438 1266 l 22
 301.342773438 1270 301.342773438 1271 305.342773438 1271 c 14
 521.342773438 1271 l 22
 525.342773438 1271 525.342773438 1270 524.342773438 1266 c 14
 520.342773438 1246 l 22
 519.342773438 1242 519.342773438 1241 515.342773438 1241 c 14
 299.342773438 1241 l 22
 295.342773438 1241 295.342773438 1242 296.342773438 1246 c 14
EndSplineSet
Refer: 41 100 N 1 0 0 1 0 0 2
EndChar

StartChar: Hbar
Encoding: 294 294 399
Width: 358
VWidth: 1920
Flags: HW
LayerCount: 2
Fore
SplineSet
100.154296875 1126 m 14
 105.154296875 1146 l 22
 106.154296875 1150 107.154296875 1151 111.154296875 1151 c 14
 561.154296875 1151 l 22
 565.154296875 1151 566.154296875 1150 565.154296875 1146 c 14
 560.154296875 1126 l 22
 559.154296875 1122 558.154296875 1121 554.154296875 1121 c 14
 104.154296875 1121 l 22
 100.154296875 1121 99.154296875 1122 100.154296875 1126 c 14
EndSplineSet
Refer: 19 72 N 1 0 0 1 0 0 2
EndChar

StartChar: hbar
Encoding: 295 295 400
Width: 295
VWidth: 1920
Flags: HW
LayerCount: 2
Fore
SplineSet
168.369140625 1271 m 14
 173.369140625 1291 l 22
 174.369140625 1295 174.369140625 1296 178.369140625 1296 c 14
 414.369140625 1296 l 22
 418.369140625 1296 418.369140625 1295 417.369140625 1291 c 14
 412.369140625 1271 l 22
 411.369140625 1267 411.369140625 1266 407.369140625 1266 c 14
 171.369140625 1266 l 22
 167.369140625 1266 167.369140625 1267 168.369140625 1271 c 14
EndSplineSet
Refer: 45 104 N 1 0 0 1 0 0 2
EndChar

StartChar: Lslash
Encoding: 321 321 405
Width: 256
VWidth: 1920
Flags: HW
LayerCount: 2
Fore
SplineSet
297 957 m 6
 303 939 l 6
 304 936 302 934 299 932 c 6
 38 799 l 6
 35 797 33 798 32 801 c 6
 26 819 l 6
 25 822 27 824 30 826 c 6
 290 959 l 6
 293 961 296 960 297 957 c 6
EndSplineSet
Refer: 23 76 N 1 0 0 1 0 0 2
EndChar

StartChar: lslash
Encoding: 322 322 406
Width: 153
VWidth: 1920
Flags: HW
LayerCount: 2
Fore
SplineSet
297 957 m 6
 303 939 l 6
 304 936 302 934 299 932 c 6
 38 799 l 6
 35 797 33 798 32 801 c 6
 26 819 l 6
 25 822 27 824 30 826 c 6
 290 959 l 6
 293 961 296 960 297 957 c 6
EndSplineSet
Refer: 49 108 N 1 0 0 1 0 0 2
EndChar

StartChar: eng
Encoding: 331 331 408
Width: 336
VWidth: 1104
Flags: HW
LayerCount: 2
Fore
SplineSet
200 1050 m 2
 216 1050 l 2
 220 1050 221 1048 220 1044 c 2
 187 902 l 1
 187 886 l 1
 -17 6 l 2
 -18 2 -20 0 -24 0 c 2
 -42 0 l 2
 -46 0 -48 2 -47 6 c 2
 193 1044 l 2
 194 1048 196 1050 200 1050 c 2
134 -55 m 6
 107 -174 82 -223 -26 -202 c 0
 -31 -201 -31 -200 -30 -196 c 2
 -27 -180 l 2
 -26 -176 -24 -175 -20 -176 c 0
 63 -193 82 -158 101 -74 c 2
 321 881 l 2
 340 963 349 1033 299 1033 c 0
 251 1033 196 926 168 805 c 1
 168 839 l 1
 198 967 242 1060 314 1060 c 0
 373 1060 378 1001 350 881 c 2
 134 -55 l 6
EndSplineSet
EndChar

StartChar: Eng
Encoding: 330 330 409
Width: 400
VWidth: 960
Flags: HW
LayerCount: 2
Fore
SplineSet
510 1400 m 2
 530 1400 l 2
 534 1400 535 1399 534 1395 c 6
 199 -55 l 6
 172 -174 147 -223 39 -202 c 0
 34 -201 34 -200 35 -196 c 2
 38 -180 l 2
 39 -176 41 -175 45 -176 c 0
 128 -193 146 -158 165 -74 c 2
 198 69 l 1
 268 1248 l 1
 -19 5 l 2
 -20 1 -21 0 -25 0 c 2
 -45 0 l 2
 -49 0 -50 1 -49 5 c 2
 272 1395 l 2
 273 1399 274 1400 278 1400 c 2
 293 1400 l 2
 297 1400 301 1399 301 1395 c 2
 232 215 l 25
 504 1395 l 2
 505 1399 506 1400 510 1400 c 2
EndSplineSet
EndChar

StartChar: oe
Encoding: 339 339 410
Width: 531
VWidth: 1104
Flags: HW
LayerCount: 2
Fore
SplineSet
-8 221 m 6
 133 831 l 6
 172 998 228 1060 300 1060 c 4
 372 1060 391 998 352 831 c 6
 211 221 l 6
 172 54 125 -10 53 -10 c 4
 -19 -10 -47 54 -8 221 c 6
20 208 m 6
 -8 87 5 18 59 18 c 4
 113 18 158 87 186 208 c 6
 333 843 l 6
 361 964 347 1032 293 1032 c 4
 239 1032 195 964 167 843 c 6
 20 208 l 6
440 398 m 4
 366 110 334 -10 246 -10 c 4
 173 -10 169 80 210 258 c 6
 333 793 l 6
 373 965 418 1060 494 1060 c 4
 566 1060 566 979 537 824 c 4
 514 698 497 628 468 502 c 4
 468 500 466 497 462 497 c 6
 272 497 l 5
 278 523 l 5
 446 523 l 5
 547 970 541 1033 487 1033 c 4
 431 1033 386 935 356 805 c 6
 227 245 l 6
 196 111 197 17 253 17 c 4
 312 17 345 115 419 400 c 4
 419 402 423 403 427 403 c 6
 437 403 l 6
 441 403 441 401 440 398 c 4
EndSplineSet
EndChar

StartChar: OE
Encoding: 338 338 411
Width: 596
VWidth: 1920
Flags: HW
LayerCount: 2
Fore
SplineSet
438 1400 m 262
 530 1400 l 262
 534 1400 535 1399 534 1395 c 262
 213 5 l 262
 212 1 211 0 207 0 c 262
 115 0 l 262
 -8 0 -36 125 22 378 c 262
 173 1031 l 262
 231 1284 295 1400 438 1400 c 262
431 1370 m 262
 307 1370 252 1245 204 1036 c 262
 51 374 l 262
 3 165 19 30 122 30 c 262
 189 30 l 261
 498 1370 l 261
 431 1370 l 262
EndSplineSet
Refer: 16 69 N 1 0 0 1 226 0 2
EndChar

StartChar: Tbar
Encoding: 358 358 413
Width: 355
VWidth: 1920
Flags: HW
LayerCount: 2
Fore
SplineSet
57 706 m 14
 62 726 l 22
 63 730 65 731 69 731 c 14
 383 731 l 22
 387 731 389 730 388 726 c 14
 383 706 l 22
 382 702 380 701 376 701 c 14
 62 701 l 22
 58 701 56 702 57 706 c 14
EndSplineSet
Refer: 31 84 N 1 0 0 1 0 0 2
EndChar

StartChar: tbar
Encoding: 359 359 414
Width: 199
VWidth: 1920
Flags: HW
LayerCount: 2
Fore
SplineSet
55 636 m 14
 59 656 l 22
 60 660 62 661 66 661 c 14
 226 661 l 22
 230 661 230 660 229 656 c 14
 225 636 l 22
 224 632 223 631 219 631 c 14
 59 631 l 22
 55 631 54 632 55 636 c 14
EndSplineSet
Refer: 57 116 N 1 0 0 1 0 0 2
EndChar

StartChar: florin
Encoding: 402 402 415
Width: 168
VWidth: 1104
Flags: HW
LayerCount: 2
Fore
SplineSet
321 1025 m 2
 158 1025 l 2
 154 1025 152 1027 153 1031 c 2
 156 1044 l 2
 157 1048 159 1050 163 1050 c 2
 326 1050 l 2
 330 1050 332 1048 331 1044 c 2
 328 1031 l 2
 327 1027 325 1025 321 1025 c 2
212 1135 m 2
 261 1347 301 1447 350 1447 c 0
 419 1447 360 1275 320 1183 c 0
 318 1178 317 1175 312 1176 c 2
 306 1177 l 2
 303 1178 302 1179 304 1183 c 0
 343 1275 388 1421 348 1421 c 0
 315 1421 287 1331 242 1136 c 2
 219 1037 l 2
 217 1030 214 1027 207 1027 c 2
 197 1027 l 2
 190 1027 187 1030 189 1037 c 2
 212 1135 l 2
-34 -59 m 2
 -83 -271 -123 -371 -172 -371 c 0
 -241 -371 -182 -199 -142 -107 c 0
 -140 -102 -138 -99 -133 -100 c 2
 -127 -101 l 2
 -124 -102 -124 -103 -126 -107 c 0
 -165 -199 -210 -345 -170 -345 c 0
 -137 -345 -109 -255 -64 -60 c 2
 190 1038 l 2
 192 1045 195 1048 202 1048 c 2
 212 1048 l 2
 219 1048 222 1045 220 1038 c 2
 -34 -59 l 2
EndSplineSet
EndChar

StartChar: uni0394
Encoding: 916 916 430
Width: 393
VWidth: 960
Flags: HW
LayerCount: 2
Fore
SplineSet
-79 0 m 2
 -83 0 -82 2 -81 5 c 6
 370 1395 l 2
 372 1398 374 1400 378 1400 c 2
 409 1400 l 2
 413 1400 414 1398 414 1395 c 2
 237 5 l 2
 237 2 237 0 233 0 c 2
 -79 0 l 2
-46 30 m 1
 205 30 l 1
 381 1345 l 1
 -46 30 l 1
EndSplineSet
EndChar

StartChar: uni03A9
Encoding: 937 937 431
Width: 498
VWidth: 1920
Flags: HW
LayerCount: 2
Fore
SplineSet
160 38 m 4
 258 150 326 314 370 504 c 2
 495 1045 l 2
 541 1244 539 1387 427 1387 c 0
 315 1387 246 1244 200 1045 c 2
 75 504 l 2
 31 314 25 148 73 37 c 4
 76 31 78 34 77 28 c 6
 72 5 l 2
 71 1 71 0 67 0 c 2
 -63 0 l 2
 -67 0 -69 1 -68 5 c 2
 -63 24 l 6
 -62 28 -60 30 -56 30 c 6
 51 30 l 5
 -1 154 4 326 50 524 c 2
 169 1041 l 2
 225 1284 293 1417 434 1417 c 0
 575 1417 580 1284 524 1041 c 2
 405 524 l 2
 359 326 284 154 175 30 c 5
 284 30 l 6
 288 30 288 28 287 24 c 6
 282 5 l 2
 281 1 281 0 277 0 c 2
 147 0 l 2
 143 0 141 1 142 5 c 2
 147 28 l 6
 148 34 153 30 160 38 c 4
EndSplineSet
EndChar

StartChar: pi
Encoding: 960 960 432
Width: 407
VWidth: 1920
Flags: HW
LayerCount: 2
Fore
SplineSet
244 1030 m 2
 7 5 l 2
 6 1 6 0 2 0 c 2
 -18 0 l 2
 -22 0 -24 1 -23 5 c 2
 214 1030 l 2
 215 1034 217 1035 221 1035 c 2
 241 1035 l 2
 245 1035 245 1034 244 1030 c 2
256 28 m 2
 251 5 l 2
 250 1 250 0 246 -1 c 0
 138 -20 131 22 155 126 c 258
 364 1030 l 2
 365 1034 365 1035 369 1035 c 2
 389 1035 l 2
 393 1035 395 1034 394 1030 c 2
 180 104 l 258
 165 40 174 13 253 32 c 4
 256 33 257 31 256 28 c 2
154 1024 m 10
 159 1045 l 18
 160 1049 160 1050 164 1050 c 10
 460 1050 l 18
 464 1050 464 1049 463 1045 c 10
 458 1024 l 18
 457 1020 457 1020 453 1020 c 10
 157 1020 l 18
 153 1020 153 1020 154 1024 c 10
EndSplineSet
EndChar

StartChar: minute
Encoding: 8242 8242 433
Width: 889
VWidth: 1920
Flags: HW
LayerCount: 2
Fore
SplineSet
135 930 m 6
 125 930 l 6
 121 930 121 934 123 940 c 6
 293 1410 l 6
 296 1417 297 1420 301 1420 c 6
 341 1420 l 6
 345 1420 345 1416 343 1410 c 6
 145 940 l 6
 143 934 139 930 135 930 c 6
EndSplineSet
EndChar

StartChar: Euro
Encoding: 8364 8364 435
Width: 505
VWidth: 1920
Flags: HW
LayerCount: 2
Fore
SplineSet
-11 611 m 10
 -6 631 l 18
 -5 635 -5 636 -1 636 c 10
 275 636 l 18
 279 636 279 635 278 631 c 10
 273 611 l 18
 272 607 272 606 268 606 c 10
 -8 606 l 18
 -12 606 -12 607 -11 611 c 10
22 754 m 10
 27 774 l 22
 28 778 28 779 32 779 c 14
 308 779 l 22
 312 779 312 778 311 774 c 14
 306 754 l 18
 305 750 305 749 301 749 c 10
 25 749 l 18
 21 749 21 750 22 754 c 10
356 353 m 256
 327 226 261 -18 119 -18 c 256
 -19 -18 0 129 53 359 c 258
 211 1042 l 258
 269 1292 322 1418 445 1418 c 256
 597 1418 559 1252 530 1126 c 256
 529 1122 528 1122 524 1122 c 258
 504 1122 l 258
 500 1122 499 1122 500 1126 c 256
 532 1269 546 1388 438 1388 c 256
 340 1388 286 1241 241 1046 c 258
 82 354 l 258
 35 149 26 12 126 12 c 256
 227 12 288 187 326 353 c 256
 327 357 329 358 333 358 c 258
 353 358 l 258
 357 358 357 357 356 353 c 256
EndSplineSet
EndChar

StartChar: uni2116
Encoding: 8470 8470 436
Width: 695
VWidth: 1920
Flags: HW
LayerCount: 2
Fore
SplineSet
301 5 m 10
 306 25 l 18
 307 29 307 30 311 30 c 10
 518 30 l 18
 522 30 522 29 521 25 c 10
 516 5 l 18
 515 1 515 0 511 0 c 10
 304 0 l 18
 300 0 300 1 301 5 c 10
EndSplineSet
Refer: 132 8304 S 1 0 0 1 280 -295 2
Refer: 25 78 N 1 0 0 1 0 0 2
EndChar

StartChar: trademark
Encoding: 8482 8482 437
Width: 611
VWidth: 1920
Flags: HW
LayerCount: 2
Fore
SplineSet
246 1400 m 2
 467 1400 l 2
 469 1400 470 1398 469 1394 c 2
 465 1376 l 2
 464 1372 462 1370 460 1370 c 2
 363 1370 l 257
 178 566 l 2
 177 562 175 560 173 560 c 2
 152 560 l 2
 150 560 150 562 151 566 c 2
 336 1370 l 257
 239 1370 l 2
 237 1370 237 1372 238 1376 c 2
 242 1394 l 2
 243 1398 244 1400 246 1400 c 2
543 1372 m 257
 357 566 l 2
 356 562 354 560 352 560 c 2
 333 560 l 2
 331 560 331 562 332 566 c 2
 523 1394 l 2
 524 1398 525 1400 527 1400 c 2
 570 1400 l 2
 572 1400 573 1398 573 1394 c 2
 476 670 l 257
 708 1394 l 6
 710 1398 711 1400 713 1400 c 6
 761 1400 l 2
 763 1400 764 1398 763 1394 c 2
 572 566 l 2
 571 562 569 560 567 560 c 2
 542 560 l 2
 540 560 540 562 541 566 c 2
 712 1310 l 257
 465 566 l 2
 463 562 461 560 459 560 c 2
 441 560 l 2
 439 560 439 562 439 566 c 2
 543 1372 l 257
EndSplineSet
EndChar

StartChar: partialdiff
Encoding: 8706 8706 438
Width: 432
VWidth: 1920
Flags: HW
LayerCount: 2
Fore
SplineSet
272 856 m 256
 202 856 169 754 148 662 c 258
 41 198 l 262
 13 78 9 12 93 12 c 260
 177 12 214 121 241 236 c 262
 370 793 l 258
 461 1186 488 1358 331 1418 c 0
 326 1420 326 1421 329 1425 c 2
 340 1442 l 2
 343 1446 343 1446 349 1444 c 0
 520 1373 493 1194 392 756 c 258
 279 268 l 258
 244 118 210 -18 86 -18 c 260
 -15 -18 -23 54 6 178 c 258
 122 678 l 258
 150 800 195 886 279 886 c 256
 357 886 383 822 361 725 c 257
 332 630 l 257
 347 695 l 258
 368 787 347 856 272 856 c 256
EndSplineSet
EndChar

StartChar: summation
Encoding: 8721 8721 439
Width: 434
VWidth: 1920
Flags: HW
LayerCount: 2
Fore
SplineSet
347 505 m 2
 -80 -330 l 1
 183 -330 l 2
 187 -330 188 -333 186 -340 c 2
 183 -350 l 2
 181 -357 180 -360 176 -360 c 2
 -124 -360 l 2
 -128 -360 -128 -358 -123 -350 c 2
 316 520 l 1
 279 1390 l 2
 278 1398 278 1400 282 1400 c 2
 582 1400 l 2
 586 1400 587 1397 585 1390 c 2
 583 1380 l 2
 581 1373 579 1370 575 1370 c 2
 312 1370 l 5
 354 535 l 2
 355 523 354 517 347 505 c 2
EndSplineSet
EndChar

StartChar: minus
Encoding: 8722 8722 440
Width: 585
Flags: HW
LayerCount: 2
Fore
SplineSet
2 248 m 14
 7 267 l 22
 8 271 9 272 13 272 c 14
 458 272 l 22
 462 272 463 271 462 267 c 14
 457 248 l 22
 456 244 455 242 451 242 c 14
 6 242 l 22
 2 242 1 244 2 248 c 14
EndSplineSet
EndChar

StartChar: integral
Encoding: 8747 8747 441
Width: 182
VWidth: 960
Flags: HW
LayerCount: 2
Fore
SplineSet
-36 -49 m 2
 -60 -153 -79 -200 -156 -176 c 0
 -160 -175 -160 -174 -159 -170 c 2
 -153 -145 l 6
 -152 -142 -152 -140 -148 -141 c 4
 -95 -150 -86 -133 -71 -69 c 6
 254 1337 l 2
 278 1441 288 1478 354 1464 c 0
 359 1463 360 1462 359 1458 c 2
 353 1433 l 2
 352 1430 350 1427 344 1429 c 0
 313 1437 303 1420 288 1357 c 2
 -36 -49 l 2
EndSplineSet
EndChar

StartChar: radical
Encoding: 8730 8730 443
Width: 448
VWidth: 1920
Flags: HMW
LayerCount: 2
Fore
SplineSet
343 1050 m 2
 347 1050 348 1046 348 1040 c 2
 208 178 l 5
 634 1590 l 2
 636 1597 636 1600 640 1600 c 2
 659 1600 l 2
 663 1600 665 1597 662 1590 c 2
 139 -143 l 2
 136 -151 135 -151 135 -143 c 2
 309 1020 l 1
 205 1020 l 2
 201 1020 201 1023 203 1030 c 2
 205 1040 l 2
 207 1047 208 1050 212 1050 c 2
 343 1050 l 2
EndSplineSet
EndChar

StartChar: infinity
Encoding: 8734 8734 444
Width: 696
VWidth: 1331
Flags: HMW
LayerCount: 2
Fore
SplineSet
180 482 m 4
 90 482 81 567 103 664 c 0
 125 761 174 844 264 844 c 4
 341 844 372 759 386 679 c 5
 436 759 506 844 583 844 c 4
 673 844 681 761 659 664 c 0
 637 567 589 482 499 482 c 4
 422 482 382 567 378 647 c 1
 327 567 257 482 180 482 c 4
187 512 m 4
 261 512 323 602 364 664 c 1
 353 725 331 814 257 814 c 4
 190 814 148 729 133 664 c 0
 118 600 120 512 187 512 c 4
506 512 m 4
 573 512 614 600 629 664 c 0
 644 729 643 814 576 814 c 4
 502 814 438 725 399 664 c 1
 400 603 432 512 506 512 c 4
EndSplineSet
EndChar

StartChar: product
Encoding: 8719 8719 445
Width: 590
VWidth: 1920
Flags: HW
LayerCount: 2
Fore
SplineSet
673 1400 m 2
 677 1400 678 1397 676 1390 c 2
 357 10 l 2
 355 3 354 0 350 0 c 2
 330 0 l 6
 326 0 325 3 327 10 c 6
 641 1370 l 261
 341 1370 l 257
 27 10 l 2
 25 3 24 0 20 0 c 2
 0 0 l 2
 -4 0 -5 3 -3 10 c 2
 316 1390 l 18
 318 1397 319 1400 323 1400 c 10
 673 1400 l 2
EndSplineSet
EndChar

StartChar: uni2219
Encoding: 8729 8729 446
Width: 270
Flags: HW
LayerCount: 2
Fore
SplineSet
95 675 m 4
 95 719 126 750 170 750 c 4
 214 750 245 719 245 675 c 4
 245 631 217 600 173 600 c 4
 129 600 95 631 95 675 c 4
EndSplineSet
EndChar

StartChar: approxequal
Encoding: 8776 8776 447
Width: 498
VWidth: 1210
Flags: HW
LayerCount: 2
Fore
SplineSet
182 635 m 260
 121 635 81 595 58 539 c 0
 57 536 55 534 52 534 c 2
 37 534 l 2
 33 534 32 536 33 539 c 0
 51 608 119 665 189 665 c 256
 279 665 275 551 351 551 c 260
 412 551 459 601 473 647 c 0
 474 650 478 652 481 652 c 2
 495 652 l 2
 499 652 499 651 498 647 c 0
 480 578 414 521 344 521 c 256
 254 521 268 635 182 635 c 260
139 450 m 256
 78 450 39 410 16 354 c 0
 15 351 13 349 10 349 c 2
 -5 349 l 2
 -9 349 -10 351 -9 354 c 0
 9 423 76 480 146 480 c 256
 236 480 232 366 308 366 c 256
 369 366 417 416 431 462 c 0
 432 465 435 467 438 467 c 2
 452 467 l 2
 456 467 457 466 456 462 c 0
 438 393 372 336 302 336 c 256
 212 336 225 450 139 450 c 256
EndSplineSet
EndChar

StartChar: notequal
Encoding: 8800 8800 448
Width: 530
VWidth: 1920
Flags: HW
LayerCount: 2
Fore
SplineSet
484 725 m 2
 495 714 l 2
 497 712 497 709 495 707 c 2
 73 275 l 2
 71 273 68 273 66 275 c 2
 55 286 l 2
 53 288 53 291 55 293 c 2
 477 725 l 2
 479 727 482 727 484 725 c 2
EndSplineSet
Refer: 83 61 S 1 0 0 1 0 0 2
EndChar

StartChar: lessequal
Encoding: 8804 8804 449
Width: 520
VWidth: 1920
Flags: HW
LayerCount: 2
Fore
SplineSet
20 354 m 14
 24 374 l 22
 25 378 25 379 29 379 c 14
 415 379 l 22
 419 379 419 378 418 374 c 14
 414 354 l 22
 413 350 413 349 409 349 c 14
 23 349 l 22
 19 349 19 350 20 354 c 14
EndSplineSet
Refer: 84 60 N 1 0 0 1 0 150 2
EndChar

StartChar: greaterequal
Encoding: 8805 8805 450
Width: 520
VWidth: 1920
Flags: HW
LayerCount: 2
Fore
SplineSet
10 354 m 14
 14 374 l 22
 15 378 15 379 19 379 c 14
 405 379 l 22
 409 379 409 378 408 374 c 14
 404 354 l 22
 403 350 403 349 399 349 c 14
 13 349 l 22
 9 349 9 350 10 354 c 14
EndSplineSet
Refer: 85 62 N 1 0 0 1 0 150 2
EndChar

StartChar: lozenge
Encoding: 9674 9674 451
Width: 650
Flags: HW
LayerCount: 2
Fore
SplineSet
220 40 m 2
 123 702 l 2
 120 710 121 714 128 722 c 2
 530 1382 l 2
 538 1391 538 1392 542 1382 c 2
 616 722 l 2
 618 714 617 710 611 702 c 2
 232 40 l 2
 225 30 224 31 220 40 c 2
244 123 m 5
 577 712 l 1
 509 1290 l 1
 161 712 l 1
 244 123 l 5
EndSplineSet
EndChar

StartChar: uniF8EA
Encoding: 63722 63722 452
Width: 542
VWidth: 1534
Flags: HW
LayerCount: 2
Fore
SplineSet
242 1400 m 6
 434 1400 l 6
 435 1400 436 1399 436 1398 c 6
 429 1369 l 6
 429 1368 428 1367 427 1367 c 6
 351 1367 l 261
 300 1150 l 6
 300 1149 299 1148 298 1148 c 6
 262 1148 l 6
 261 1148 260 1149 260 1150 c 6
 311 1367 l 261
 235 1367 l 6
 234 1367 233 1368 233 1369 c 6
 240 1398 l 6
 240 1399 241 1400 242 1400 c 6
491 1352 m 261
 444 1150 l 6
 444 1149 443 1148 442 1148 c 6
 412 1148 l 6
 411 1148 410 1149 410 1150 c 6
 468 1398 l 6
 468 1399 469 1400 470 1400 c 6
 520 1400 l 6
 521 1400 522 1399 522 1398 c 6
 552 1224 l 261
 664 1398 l 6
 664 1399 665 1400 666 1400 c 6
 706 1400 l 6
 707 1400 708 1399 708 1398 c 6
 650 1150 l 6
 650 1149 649 1148 648 1148 c 6
 616 1148 l 6
 615 1148 614 1149 614 1150 c 6
 657 1334 l 261
 538 1150 l 6
 538 1149 537 1148 536 1148 c 6
 525 1148 l 6
 524 1148 522 1149 522 1150 c 6
 491 1352 l 261
EndSplineSet
EndChar

StartChar: uniF8E8
Encoding: 63720 63720 453
Width: 492
VWidth: 1508
Flags: HW
LayerCount: 2
Fore
SplineSet
369 1317 m 261
 350 1233 l 261
 422 1233 l 262
 452 1233 471 1245 476 1267 c 262
 479 1283 l 262
 484 1305 471 1317 441 1317 c 262
 369 1317 l 261
447 1343 m 262
 493 1343 524 1322 514 1279 c 262
 513 1275 l 262
 503 1232 463 1213 417 1213 c 261
 420 1225 l 261
 466 1225 496 1210 486 1167 c 262
 483 1151 l 262
 478 1131 481 1115 486 1103 c 4
 488 1101 486 1100 486 1099 c 6
 484 1093 l 6
 484 1091 485 1091 483 1091 c 6
 450 1091 l 6
 448 1091 448 1091 447 1093 c 4
 441 1111 445 1135 449 1151 c 262
 454 1173 l 262
 459 1195 446 1207 416 1207 c 262
 344 1207 l 261
 317 1093 l 6
 317 1091 317 1091 315 1091 c 6
 285 1091 l 6
 283 1091 283 1091 283 1093 c 6
 341 1341 l 6
 341 1343 341 1343 343 1343 c 6
 447 1343 l 262
614 1207 m 4
 587 1092 471 999 356 999 c 4
 241 999 169 1092 196 1207 c 4
 223 1322 337 1417 452 1417 c 4
 567 1417 641 1322 614 1207 c 4
588 1207 m 4
 612 1309 548 1391 446 1391 c 4
 344 1391 246 1309 222 1207 c 4
 198 1105 260 1025 362 1025 c 4
 464 1025 564 1105 588 1207 c 4
EndSplineSet
EndChar

StartChar: uniF8E9
Encoding: 63721 63721 454
Width: 492
VWidth: 1508
Flags: HW
LayerCount: 2
Fore
SplineSet
498 1172 m 260
 482 1120 437 1076 371 1076 c 260
 301 1076 276 1125 292 1193 c 262
 299 1223 l 262
 315 1291 363 1341 433 1341 c 260
 499 1341 519 1301 511 1257 c 260
 511 1255 512 1255 510 1255 c 262
 483 1255 l 262
 481 1255 481 1255 481 1257 c 260
 489 1291 468 1315 429 1315 c 260
 383 1315 347 1273 336 1225 c 262
 328 1191 l 262
 317 1143 329 1101 379 1101 c 260
 421 1101 459 1134 468 1172 c 260
 468 1174 468 1173 470 1173 c 262
 496 1173 l 262
 498 1173 498 1174 498 1172 c 260
614 1207 m 4
 587 1092 471 999 356 999 c 4
 241 999 169 1092 196 1207 c 4
 223 1322 337 1417 452 1417 c 4
 567 1417 641 1322 614 1207 c 4
588 1207 m 4
 612 1309 548 1391 446 1391 c 4
 344 1391 246 1309 222 1207 c 4
 198 1105 260 1025 362 1025 c 4
 464 1025 564 1105 588 1207 c 4
EndSplineSet
EndChar

StartChar: uni1E9E
Encoding: 7838 7838 457
Width: 496
VWidth: 1920
Flags: HW
LayerCount: 2
Fore
SplineSet
228 1102 m 2
 275 1304 316 1405 426 1405 c 0
 517 1405 533 1299 539 1175 c 0
 539 1164 538 1157 534 1148 c 2
 349 712 l 1
 392 637 445 564 392 334 c 0
 343 122 268 -5 188 -5 c 0
 139 -5 113 33 103 88 c 0
 101 100 98 121 99 127 c 2
 107 160 l 2
 110 175 115 148 121 129 c 4
 135 77 144 25 195 25 c 4
 253 25 323 165 362 334 c 0
 408 532 383 598 317 693 c 0
 312 701 309 699 313 708 c 2
 506 1152 l 1
 515 1238 498 1375 419 1375 c 0
 325 1375 297 1268 256 1092 c 2
 5 5 l 2
 4 1 4 0 0 0 c 2
 -21 0 l 2
 -25 0 -26 1 -25 5 c 2
 228 1102 l 2
EndSplineSet
EndChar
